<svg xmlns="http://www.w3.org/2000/svg" xmlns:xlink="http://www.w3.org/1999/xlink" width="1000px" height="350px" viewBox="0 0 1000 350" style="enable-background:new 0 0 1000 350;" xml:space="preserve">
<style type="text/css">
	.st0{fill:#FF355E;}
	.st1{fill:#515457;}
	.st2{display:none;}
	.st3{display:inline;}
</style>
<g id="レイヤー_1_1_">
	<g>
		<path class="st0" d="M224.7,227.6l-16.2-11.7c-2.2-1.6-5.2-1.6-7.3,0c-8.6,6-18.7,9.2-29.2,9.2c-28.2,0-51.1-22.9-51.1-51.1
			s22.9-51.1,51.1-51.1c10.5,0,20.5,3.2,29.1,9.2c2.2,1.6,5.2,1.6,7.3-0.1l16.2-11.7c1.6-1.1,2.6-2.9,2.7-4.9s-0.8-3.9-2.2-5.1
			C210.2,97.9,191.3,91,172,91c-45.8,0-83,37.2-83,83s37.2,83,83,83c19.4,0,38.3-6.9,53.2-19.4c1.6-1.3,2.3-3.2,2.2-5.1
			C227.2,230.6,226.2,228.7,224.7,227.6z"/>
		<path class="st0" d="M402.5,144.8c-12-31-42.4-51.9-75.5-51.9h-57.9c-3.5,0-6.4,2.9-6.4,6.4V118c0,3.5,2.9,6.4,6.4,6.4H327
			c21.7,0,41.2,14.5,47.4,35.3c1.4,4.7,2.2,9.5,2.2,14.3s-0.7,9.7-2.2,14.3c-6.3,20.7-25.8,35.3-47.4,35.3h-57.9
			c-3.5,0-6.4,2.9-6.4,6.4v18.7c0,3.5,2.9,6.4,6.4,6.4H327c33.2,0,63.5-20.8,75.5-51.9c3.6-9.3,5.4-19.2,5.4-29.2
			C408,164,406.1,154.2,402.5,144.8z"/>
		<path class="st0" d="M171.8,164.5v19.2c0,3.5,2.9,6.4,6.4,6.4h140.4c3.5,0,6.4-2.9,6.4-6.4v-19.2c0-3.5-2.9-6.4-6.4-6.4H178.2
			C174.6,158.1,171.8,161,171.8,164.5z"/>
	</g>
	<g>
		<g>
			<path class="st1" d="M641.5,207.3c-0.4-0.3-1-0.3-1.4-0.3s-0.9,0.1-1.2,0.3c-5.3,2.5-11.9,3.8-19.8,3.8c-21.3,0-34-13.4-34-35.9
				c0-21.8,13.4-35.9,34.1-35.9c5.5,0,13.5,1,19.4,3.8c0.3,0.2,0.8,0.3,1.2,0.3c0.5,0,1-0.1,1.4-0.3c0.8-0.4,1.3-1.3,1.4-2.2
				l0.9-9.9c0.1-1.2-0.6-2.4-1.7-2.9c-7-2.9-16.8-3.9-23.1-3.9c-29.6,0-50.9,21.5-50.9,51.1c0,31,20,51.1,50.9,51.1
				c3.4,0,15.2-0.3,23.6-4.5c1-0.5,1.6-1.6,1.6-2.8l-0.9-9.4C642.8,208.6,642.2,207.7,641.5,207.3z"/>
			<path class="st1" d="M698.6,124c-31,0-44.9,25.7-44.9,51.1c0,31.5,17.2,51.1,44.9,51.1c14.1,0,25.8-5.4,33.8-15.5
				c7.2-9,11.1-21.7,11.1-35.6C743.4,143.6,726.2,124,698.6,124z M698.6,211.3c-13.7,0-27.6-11.1-27.6-36.1c0-18,8.6-36.1,27.6-36.1
				c13.3,0,27.5,9.5,27.5,36.1C726,201.8,711.8,211.3,698.6,211.3z"/>
			<path class="st1" d="M785.3,125.4h-24.4c-1.6,0-2.9,1.3-2.9,2.9v93.5c0,1.6,1.3,2.9,2.9,2.9h19.2c36,0,55.8-17.6,55.8-49.5
				C835.9,143.5,817.4,125.4,785.3,125.4z M779.7,209.9h-5v-69.6h10.1c21.4,0,33.8,12.7,33.8,34.9
				C818.5,199.2,806.6,209.9,779.7,209.9z"/>
			<path class="st1" d="M903.1,209.9h-35.9v-28.8h32.5c1.6,0,2.9-1.3,2.9-2.9v-8.9c0-1.6-1.3-2.9-2.9-2.9h-32.5v-26.3h34.3
				c1.6,0,2.9-1.3,2.9-2.9v-9.1c0-1.6-1.3-2.9-2.9-2.9h-48.2c-1.6,0-2.9,1.3-2.9,2.9v93.5c0,1.6,1.3,2.9,2.9,2.9h49.8
				c1.6,0,2.9-1.3,2.9-2.9v-9.1C906,211.1,904.8,209.9,903.1,209.9z"/>
		</g>
		<g>
			<path class="st1" d="M508.9,125.4h-47c-1.6,0-2.9,1.3-2.9,2.9v93.5c0,1.6,1.3,2.9,2.9,2.9H473c1.6,0,2.9-1.3,2.9-2.9v-40.4h31.5
				c1.6,0,2.9-1.3,2.9-2.9v-8.8c0-1.6-1.3-2.9-2.9-2.9h-31.5v-26.5h33c1.6,0,2.9-1.3,2.9-2.9v-9.1
				C511.8,126.7,510.5,125.4,508.9,125.4z"/>
			<path class="st1" d="M550.7,166.8h-24c-1.6,0-2.9,1.3-2.9,2.9v8.8c0,1.6,1.3,2.9,2.9,2.9h24c1.6,0,2.9-1.3,2.9-2.9v-8.8
				C553.6,168.1,552.3,166.8,550.7,166.8z"/>
		</g>
	</g>
</g>
<g id="レイヤー_2_1_" class="st2">
	<g class="st3">
		<path class="st0" d="M708,29.2c-4.9,2.2-11.5,3-16.9,3c-22,0-36.5-13.5-36.5-35.6c0-21.1,15.4-35.6,36.5-35.6
			c5.3,0,11.8,0.8,16.7,2.6l-0.6,9.1c-4.2-2-9.9-2.9-14.8-2.9c-16.2,0-26,11.4-26,26.8c0,15.9,9.3,26.8,25.8,26.8
			c5.3,0,10.6-0.8,15.2-3L708,29.2z"/>
		<path class="st0" d="M731.9,4.9c0-15.7,10-26.7,25.5-26.7c16.4,0,25.5,10.6,25.5,26.7c0,15.7-9.1,27.2-25.5,27.2
			c-4.1,0-7.8-0.6-11-2C737,26.1,731.9,16.7,731.9,4.9z M757.3,24.3c10.3,0,14.3-9.8,14.3-19.4c0-9.2-3.6-18.9-14.3-18.9
			C747-14,743-4.2,743,4.9c0,4.7,1,9.5,3.2,13.3C748.7,21.8,752.1,24.3,757.3,24.3z"/>
		<path class="st0" d="M808.1,31V-8.9c0-4-0.1-7.9-0.5-11.9h9.7l0.3,8.9c3.6-6.6,9.2-9.9,16.8-9.9c12.8,0,17.4,8.1,17.4,20.1V31
			h-10.5V0.5c0-7.2-1.5-14.2-10.2-14.2c-9.6,0-12.6,8.4-12.6,16.6V31H808.1z"/>
		<path class="st0" d="M877.4,31V-8.9c0-4-0.1-7.9-0.5-11.9h9.7l0.3,8.9c3.6-6.6,9.2-9.9,16.8-9.9c12.8,0,17.4,8.1,17.4,20.1V31
			h-10.5V0.5c0-7.2-1.5-14.2-10.2-14.2c-9.6,0-12.6,8.4-12.6,16.6V31H877.4z"/>
		<path class="st0" d="M956.3,7.4c0,9.5,5.9,17.5,17.3,17.5c4.7,0,9.8-1,14-3.2l0.6,7.7c-4.9,2-10.3,2.8-16.1,2.8
			c-17.5,0-26.5-11.1-26.5-27.2c0-14.2,8.8-26.7,23.7-26.7c16.3,0,21.6,11.5,21.6,26.1v3.1L956.3,7.4L956.3,7.4z M981.1,1
			c0-7.9-2.3-15.6-11.6-15.6c-8.8,0-12.9,8.2-13.3,15.6H981.1z"/>
		<path class="st0" d="M1055.6,30.2c-4.1,1.6-8.2,2-13,2c-17.8,0-27-11.4-27-27.2c0-16,11-26.7,27.2-26.7c4.6,0,8.5,0.2,12.9,1.8
			l-0.6,8.3c-3.2-1.6-6.8-2.3-10.9-2.3c-11.3,0-17.5,8.2-17.5,18.9c0,10.4,5.9,19.4,18.1,19.4c3.8,0,6.8-0.7,10.2-2.3L1055.6,30.2z"
			/>
		<path class="st0" d="M1112.3,30.4c-3.2,1.1-6.7,1.8-9.9,1.8c-11.1,0-13.1-7.7-13.1-17.7v-27.7h-9.5v-7.4h9.5v-11.2l10.5-3.4v14.6
			h11.6v7.4h-11.6v29c0,4.5,1.1,8.3,6.4,8.3c2,0,3.8-0.4,5.7-1.2L1112.3,30.4z"/>
		<path class="st0" d="M1136.3,44.3l6-23.9h10.8l-9.1,23.9H1136.3z"/>
		<path class="st0" d="M1202.1,31v-69h21.2c22.3,0,35.3,10.9,35.3,33.5c0,24-15.6,35.5-38.4,35.5H1202.1z M1213.4,22.6h5.7
			c17.8,0,27.7-8.8,27.7-27.1c0-15.8-8.4-25.2-24.6-25.2h-8.8L1213.4,22.6L1213.4,22.6z"/>
		<path class="st0" d="M1293.2,7.4c0,9.5,5.9,17.5,17.3,17.5c4.7,0,9.8-1,14-3.2l0.6,7.7c-4.9,2-10.4,2.8-16.1,2.8
			c-17.5,0-26.5-11.1-26.5-27.2c0-14.2,8.8-26.7,23.7-26.7c16.3,0,21.6,11.5,21.6,26.1v3.1L1293.2,7.4L1293.2,7.4z M1317.9,1
			c0-7.9-2.3-15.6-11.6-15.6c-8.8,0-12.9,8.2-13.3,15.6H1317.9z"/>
		<path class="st0" d="M1354.3,31v-74.6h10.3V31H1354.3z"/>
		<path class="st0" d="M1391.2-31.4v-10h10.3v10H1391.2z M1391.2,31v-51.8h10.3V31H1391.2z"/>
		<path class="st0" d="M1431.5,42.9c4.6,2.4,10,3.7,15.4,3.7c12,0,16.9-7.5,16.9-18.5V22c-3.3,5.7-9.4,9-16.1,9
			c-15.2,0-21-13.3-21-26.1c0-13.8,5.9-26.7,21.2-26.7c7.1,0,12.9,3,16.3,9.6v-8.6h9.9v48.9c0,16.9-8.4,26.4-25.7,26.4
			c-5.9,0-11.8-1-17.6-2.8L1431.5,42.9z M1450.9,23.1c9.9,0,13.3-10.1,13.3-18c0-8.3-3.1-18.9-13.1-18.9c-10.8,0-13,10.1-13,18.9
			c0,4,0.6,8.5,2.6,12.1C1442.5,20.6,1445.6,23.1,1450.9,23.1z"/>
		<path class="st0" d="M1500.1,31v-74.6h10.3v31.5c3.2-6.5,8.7-9.6,16-9.6c12.4,0,17.3,8.3,17.3,20.1V31h-10.5V0.5
			c0-7.3-1.5-14.2-10.2-14.2c-9.5,0-12.6,8.5-12.6,16.5V31H1500.1z"/>
		<path class="st0" d="M1600.2,30.4c-3.2,1.1-6.7,1.8-9.9,1.8c-11.1,0-13.1-7.7-13.1-17.7v-27.7h-9.5v-7.4h9.5v-11.2l10.5-3.4v14.6
			h11.6v7.4h-11.6v29c0,4.5,1.1,8.3,6.4,8.3c2,0,3.8-0.4,5.7-1.2L1600.2,30.4z"/>
	</g>
</g>
</svg>
