<svg id="レイヤー_1" data-name="レイヤー 1" xmlns="http://www.w3.org/2000/svg" viewBox="0 0 567 198.45"><defs><style>.cls-1{fill:#5279e7;}.cls-2{fill:#c2d7ff;}</style></defs><title>アートボード 1</title><path class="cls-1" d="M190.3,65.6h12.9v25h27.2v-25h12.7v66.3H230.4V102.8H203.2v29.1H190.3Zm125.8-.8h12.3V82.9h7.3V93.3h-7.3v38.6H316.1V93.4h-6.4V82.9h6.4Zm82,18.1h12V89a28.62,28.62,0,0,1,7.4-4.8,17.87,17.87,0,0,1,6.8-1.3,16.61,16.61,0,0,1,12.1,5c2.8,2.8,4.2,7,4.2,12.5V132h-12V111c0-5.7-.3-9.5-.8-11.4a7.63,7.63,0,0,0-2.7-4.3,7.35,7.35,0,0,0-4.7-1.5,8.77,8.77,0,0,0-6.2,2.4,13.54,13.54,0,0,0-3.6,6.7,60.92,60.92,0,0,0-.5,9.7v19.2h-12V82.9ZM289.6,83v4.9A24.28,24.28,0,0,0,274.9,83a24.5,24.5,0,1,0,0,49,24.28,24.28,0,0,0,14.7-4.9V132h12.3V83Zm-14.7,38a13.5,13.5,0,1,1,13.5-13.5A13.44,13.44,0,0,1,274.9,121ZM487.6,83v4.9A24.28,24.28,0,0,0,472.9,83a24.5,24.5,0,0,0,0,49,24.28,24.28,0,0,0,14.7-4.9V132h12.3V83Zm-14.7,38a13.5,13.5,0,1,1,13.5-13.5A13.44,13.44,0,0,1,472.9,121ZM365.4,83.1c-6.9,0-12.7,2.3-17.2,7a24.28,24.28,0,0,0-6.9,17.7,23.52,23.52,0,0,0,6.9,17.3c4.6,4.6,10.5,6.9,17.8,6.9a28,28,0,0,0,12.1-3c3.4-1.7,8-6.9,10-11.8h-11a15.39,15.39,0,0,1-11.3,4.6,13.88,13.88,0,0,1-9-2.9,12.2,12.2,0,0,1-4.3-7.9h37.6v-2.2c0-7.7-2.3-13.8-6.9-18.5C378.7,85.4,372.8,83.1,365.4,83.1Zm-12.3,18.6a15.25,15.25,0,0,1,4.3-5.9,14.2,14.2,0,0,1,8.6-2.7,13.21,13.21,0,0,1,7.9,2.4,11.74,11.74,0,0,1,4.6,6.2Z"/><path class="cls-1" d="M95.3,73.7c2.4.9,12.8,4.5,13.2,4.6.3-.1,10.7-3.8,13.2-4.6-2.4-.9-12.8-4.5-13.2-4.6C108.2,69.2,97.8,72.9,95.3,73.7Zm29.9,0c2.4.9,12.8,4.5,13.2,4.6.3-.1,10.7-3.8,13.2-4.6-2.4-.9-12.8-4.5-13.2-4.6C138,69.2,127.7,72.9,125.2,73.7Z"/><path class="cls-2" d="M110.3,85c2.4.9,12.8,4.5,13.2,4.6L136.7,85c-2.4-.9-12.8-4.5-13.2-4.6C123.2,80.5,112.8,84.2,110.3,85Z"/><path class="cls-1" d="M139.6,85c2.4.9,12.8,4.5,13.2,4.6L166,85c-2.4-.9-12.8-4.5-13.2-4.6C152.5,80.5,142.1,84.2,139.6,85ZM80.9,85c2.4.9,12.8,4.5,13.2,4.6L107.3,85c-2.4-.9-12.8-4.5-13.2-4.6C93.8,80.5,83.4,84.2,80.9,85Zm29.4,38c2.4.9,12.8,4.5,13.2,4.6.3-.1,10.7-3.8,13.2-4.6-2.4-.9-12.8-4.5-13.2-4.6C123.1,118.5,112.7,122.2,110.3,123Z"/><path class="cls-2" d="M109.9,108.1c2.4.9,12.8,4.5,13.2,4.6.3-.1,10.7-3.8,13.2-4.6-2.4-.9-12.8-4.5-13.2-4.6S112.3,107.2,109.9,108.1Zm30.2,0c2.4.9,12.8,4.5,13.2,4.6.3-.1,10.7-3.8,13.2-4.6-2.4-.9-12.8-4.5-13.2-4.6S142.5,107.2,140.1,108.1Zm-59.7,0c2.4.9,12.8,4.5,13.2,4.6.3-.1,10.7-3.8,13.2-4.6-2.4-.9-12.8-4.5-13.2-4.6S82.9,107.2,80.4,108.1Z"/><path class="cls-2" d="M95.5,96.4c2.4.9,12.8,4.5,13.2,4.6l13.2-4.6c-2.4-.9-12.8-4.5-13.2-4.6C108.3,91.9,98,95.5,95.5,96.4Z"/><path class="cls-1" d="M125.4,96.4c2.4.9,12.8,4.5,13.2,4.6.3-.1,10.7-3.8,13.2-4.6-2.4-.9-12.8-4.5-13.2-4.6C138.2,91.9,127.8,95.5,125.4,96.4Z"/><path class="cls-2" d="M154.7,96.4c2.4.9,12.8,4.5,13.2,4.6.3-.1,10.7-3.8,13.2-4.6-2.4-.9-12.8-4.5-13.2-4.6C167.5,91.9,157.1,95.5,154.7,96.4Zm-88.8,0c2.4.9,12.8,4.5,13.2,4.6l13.2-4.6c-2.4-.9-12.8-4.5-13.2-4.6C78.7,91.9,68.3,95.5,65.9,96.4Z"/></svg>
