<?xml version="1.0" encoding="utf-8"?>
<!-- Generator: Adobe Illustrator 14.0.0, SVG Export Plug-In . SVG Version: 6.00 Build 43363)  -->
<!DOCTYPE svg PUBLIC "-//W3C//DTD SVG 1.1//EN" "http://www.w3.org/Graphics/SVG/1.1/DTD/svg11.dtd">
<svg version="1.1" id="Layer_1" xmlns="http://www.w3.org/2000/svg" xmlns:xlink="http://www.w3.org/1999/xlink" x="0px" y="0px"
	 width="2000px" height="700px" viewBox="0 0 2000 700" enable-background="new 0 0 2000 700" xml:space="preserve">
<g id="lightbend">
	<path fill="#FF931E" d="M587.852,240.958c0-6.253,5.069-11.323,11.323-11.323s11.323,5.07,11.323,11.323v169.698h72.205
		c5.764,0.113,10.363,4.841,10.318,10.605c0.027,5.673-4.55,10.294-10.223,10.319c-0.032,0-0.064,0-0.095,0h-83.703
		c-6.21-0.164-11.158-5.252-11.147-11.466V240.958z"/>
	<path fill="#FF931E" d="M735.588,236.946c0-7.167,5.733-11.753,12.898-11.753c7.453,0,13.186,4.586,13.186,11.753v3.726
		c0,6.88-5.733,11.753-13.186,11.753c-7.165,0-12.898-4.873-12.898-11.753V236.946z M737.547,293.129
		c-0.002-6.059,4.835-11.009,10.893-11.148c6.086-0.07,11.076,4.806,11.147,10.892c0.002,0.085,0.002,0.171,0,0.256v128.707
		c0.204,5.95-4.457,10.938-10.407,11.142c-0.161,0.006-0.324,0.007-0.485,0.006c-6.085,0.07-11.077-4.807-11.147-10.892
		c-0.001-0.086-0.001-0.171,0-0.256V293.129z"/>
	<path fill="#FF931E" d="M819.29,460.517c-3.506-1.71-5.731-5.271-5.732-9.172c0.391-5.323,4.701-9.51,10.033-9.747
		c1.728-0.005,3.422,0.493,4.873,1.434c15.476,10.463,33.729,16.054,52.409,16.053c32.679,0,53.891-18.059,53.891-52.744v-17.518
		c-12.898,17.199-30.958,31.245-58.189,31.245c-35.544,0-69.657-26.658-69.657-69.369v-0.573c0-43.285,34.398-69.943,69.657-69.943
		c27.805,0,45.864,13.759,57.903,29.812v-16.864c-0.114-6.042,4.69-11.031,10.732-11.146c0.054-0.001,0.107-0.001,0.162-0.002
		c6.156,0,11.147,4.991,11.147,11.148v112.654c0,22.932-6.88,40.417-18.919,52.456c-13.186,13.187-32.964,19.779-56.47,19.779
		C859.278,478.122,837.844,472.056,819.29,460.517z M935.384,350.443v-0.557c0-30.385-26.372-50.164-54.464-50.164
		c-28.092,0-51.31,19.493-51.31,49.877v0.574c0,29.812,23.792,50.45,51.31,50.45c28.076,0,54.448-20.353,54.448-50.164
		L935.384,350.443z"/>
	<path fill="#FF931E" d="M1007.316,232.041c-0.009-6.095,4.926-11.043,11.021-11.052c6.096-0.009,11.043,4.925,11.052,11.02
		c0,0.011,0,0.021,0,0.032v77.108c9.747-16.052,25.226-28.952,50.737-28.952c35.831,0,56.757,24.079,56.757,59.337v82.268
		c0.009,6.096-4.925,11.044-11.02,11.053s-11.043-4.925-11.052-11.02c0-0.012,0-0.022,0-0.033v-76.79
		c0-27.519-14.906-44.717-40.991-44.717c-25.479,0-44.432,18.632-44.432,46.437v75.104c0.202,5.95-4.457,10.938-10.408,11.142
		c-0.161,0.006-0.322,0.007-0.483,0.006c-6.087,0.07-11.077-4.807-11.147-10.892c-0.002-0.085-0.002-0.171,0-0.256V232.041H1007.316
		z"/>
	<path fill="#FF931E" d="M1189.054,392.31v-89.434h-11.977c-5.314-0.158-9.588-4.43-9.745-9.746
		c0.052-5.361,4.385-9.694,9.745-9.747h12.04v-35.035c-0.105-6.05,4.714-11.04,10.764-11.146c0.043-0.001,0.086-0.001,0.129-0.001
		c6.104,0.126,11.021,5.044,11.147,11.147v35.035h38.379c5.418,0.031,9.845,4.333,10.033,9.747
		c-0.087,5.458-4.574,9.816-10.033,9.746h-38.411v86.568c0,18.06,10.033,24.652,24.938,24.652c7.74,0,11.753-2.007,13.473-2.007
		c5.203,0.052,9.408,4.257,9.46,9.459c-0.072,3.933-2.63,7.386-6.37,8.6c-6.92,2.782-14.328,4.147-21.785,4.014
		C1207.112,434.161,1189.054,422.408,1189.054,392.31z"/>
	<path fill="#FF931E" d="M1306.866,232.041c-0.008-6.095,4.926-11.043,11.021-11.052s11.043,4.925,11.052,11.02
		c0,0.011,0,0.021,0,0.032v81.217c12.04-17.772,29.525-32.964,56.757-32.964c35.545,0,70.803,28.091,70.803,76.822v0.573
		c0,48.444-35.034,77.108-70.803,77.108c-27.519,0-45.291-14.905-56.757-31.53v18.631c0.106,6.051-4.713,11.041-10.764,11.146
		c-0.043,0.001-0.086,0.001-0.129,0.002c-6.156,0-11.146-4.991-11.146-11.148V232.041H1306.866z M1433.853,357.849v-0.573
		c0-35.036-24.078-57.33-52.17-57.33c-27.52,0-53.604,23.219-53.604,57.044v0.572c0,34.398,26.086,57.33,53.604,57.33
		C1410.348,414.956,1433.853,393.743,1433.853,357.849z"/>
	<path fill="#FF931E" d="M1559.119,435.021c-40.705,0-73.956-31.245-73.956-77.109v-0.573c0-42.71,30.099-77.109,71.09-77.109
		c43.857,0,68.797,35.831,68.797,75.102c0.025,5.673-4.551,10.294-10.225,10.319c-0.032,0-0.063,0-0.096,0h-107.207
		c3.185,32.105,25.799,50.164,52.17,50.164c18.346,0,31.851-7.166,42.711-17.198c3.869-3.59,9.915-3.362,13.504,0.507
		c1.609,1.734,2.518,4.006,2.549,6.372c-0.052,2.775-1.307,5.391-3.44,7.166C1600.954,426.136,1584.345,435.021,1559.119,435.021z
		 M1602.977,349.312c-2.294-26.945-17.772-50.387-47.297-50.387c-25.799,0-45.291,21.499-48.157,50.451h95.454V349.312z"/>
	<path fill="#FF931E" d="M1661.74,293.129c-0.002-6.059,4.835-11.009,10.894-11.148c6.085-0.07,11.076,4.806,11.146,10.892
		c0.001,0.085,0.001,0.171,0,0.256v16.052c9.746-16.052,25.226-28.952,50.736-28.952c35.832,0,56.758,24.078,56.758,59.336v82.27
		c0.009,6.095-4.925,11.043-11.021,11.052c-6.095,0.009-11.043-4.926-11.052-11.021c0-0.011,0-0.021,0-0.031v-76.823
		c0-27.519-14.905-44.717-40.991-44.717c-25.479,0-44.431,18.632-44.431,46.437v75.104c0.203,5.95-4.457,10.938-10.408,11.142
		c-0.161,0.006-0.322,0.007-0.484,0.006c-6.086,0.07-11.077-4.807-11.147-10.892c-0.001-0.085-0.001-0.171,0-0.256V293.129z"/>
	<path fill="#FF931E" d="M1975.894,421.819c0.009,6.095-4.925,11.043-11.021,11.052c-6.095,0.009-11.043-4.925-11.052-11.021
		c0-0.01,0-0.021,0-0.031v-20.065c-12.04,17.771-29.525,32.965-56.757,32.965c-35.544,0-70.803-28.092-70.803-76.823v-0.572
		c0-48.444,35.259-77.109,70.803-77.109c27.519,0,45.291,14.906,56.757,31.532v-79.705c-0.203-5.951,4.457-10.94,10.407-11.142
		c0.163-0.006,0.324-0.008,0.485-0.006c6.086-0.071,11.076,4.806,11.147,10.892c0.002,0.085,0.002,0.171,0,0.256v189.778H1975.894z
		 M1848.907,357.036v0.573c0,35.035,24.365,57.33,52.171,57.33c27.519,0,53.604-23.219,53.604-57.33v-0.558
		c0-34.111-26.085-57.043-53.604-57.043c-28.649,0-52.155,21.212-52.155,57.043L1848.907,357.036z"/>
</g>
<g id="icon">
	<path fill="#FF931E" d="M24.105,448.621v89.18c0,8.796,7.129,15.926,15.924,15.926h445.901c8.795,0,15.926-7.13,15.926-15.926
		v-89.18c-77.81,21.418-158.174,32.133-238.876,31.85C182.278,480.754,101.914,470.039,24.105,448.621z"/>
	<path fill="#FF931E" d="M485.931,139.675H40.03c-8.795,0-15.924,7.13-15.924,15.925v262.763
		c77.658,22.316,158.074,33.574,238.875,33.443c80.801,0.131,161.218-11.127,238.876-33.443V155.601
		C501.857,146.806,494.727,139.675,485.931,139.675z"/>
</g>
</svg>
