<?xml version="1.0" encoding="utf-8"?>
<!-- Generator: Adobe Illustrator 22.1.0, SVG Export Plug-In . SVG Version: 6.00 Build 0)  -->
<svg version="1.1" id="レイヤー_1" xmlns="http://www.w3.org/2000/svg" xmlns:xlink="http://www.w3.org/1999/xlink" x="0px"
     y="0px" viewBox="0 0 567 198.45" style="enable-background:new 0 0 567 198.45;" xml:space="preserve">
<style type="text/css">
	.st0{fill:#FFFFFF;}
	.st1{fill:#41B9AD;}
</style>
<g id="レイヤー_3">
</g>
<g id="logo">
</g>
<g id="mark">
	<g>
		<rect class="st0" width="567" height="198.45"/>
        <g>
			<path d="M420.7,76.5c-2.3,0-4.1,1.9-4.1,4.1v37.6c0,5.3,8.2,5.3,8.2,0V80.6C424.8,78.3,423,76.5,420.7,76.5z"/>
			<path d="M520.1,97.7l15.6-14c3.9-3.5-1.5-9.7-5.5-6.2l-21.6,19.4V80.6c0-5.3-8.2-5.3-8.2,0v37.6c0,5.3,8.2,5.3,8.2,0V108l5.5-4.9
				l15.9,17.7c3.5,3.9,9.7-1.5,6.2-5.5L520.1,97.7z"/>
			<path d="M172.9,77.6l-16.4,14.4L140,77.6c-2.6-2.3-6.8-0.4-6.8,3.1v37.6c0,5.3,8.2,5.3,8.2,0V89.6l12.2,10.8c0.8,0.7,1.7,1,2.7,1
				c0.1,0,0.3,0,0.4,0c0.9,0,1.9-0.3,2.7-1l12.2-10.8v28.6c0,5.3,8.2,5.3,8.2,0V80.7C179.7,76.8,175.4,75.4,172.9,77.6z"/>
			<path d="M235.1,116.5l-16.3-37.6c-1.5-3.2-6.1-3.2-7.5,0.1l-16.3,37.5c-2.1,4.9,5.5,8.1,7.5,3.3l12.5-28.8l12.5,28.8
				C229.7,124.6,237.2,121.4,235.1,116.5z"/>
			<path d="M245.9,82.3l16.3,37.6c1.5,3.2,6.1,3.2,7.5-0.1l16.3-37.5c2.1-4.9-5.5-8.1-7.5-3.3l-12.5,28.8L253.4,79
				C251.3,74.2,243.7,77.4,245.9,82.3z"/>
			<path d="M335.3,114H311v-10.3H330c5.3,0,5.3-8.2,0-8.2H311V84.8h24.4c5.3,0,5.3-8.2,0-8.2h-28.6c-2.3,0-4.1,1.9-4.1,4.1v37.6
				c0,2.3,1.9,4.1,4.1,4.1h28.6C340.7,122.2,340.7,114,335.3,114z"/>
			<path d="M397.1,115.6l-9.7-12.7c6.4-2.1,10.4-8.7,9.2-15.4c-1.2-6.3-6.8-11.1-13.3-11.1l0,0h-20.2c-2.3,0-4.1,1.9-4.1,4.1V118
				c0,5.3,8.2,5.3,8.2,0V84.8h14.5c3.7,0,8.2,2.1,7.6,6.4c-0.6,4.1-5.6,5-9,5c-3.4-0.2-5.6,3.8-3.4,6.6l13.7,17.9
				C393.8,124.9,400.3,119.9,397.1,115.6z"/>
			<path d="M474.7,109.7c-4.4,4.4-11.4,5.6-16.9,2.7c-6.6-3.3-9.8-11.2-7.2-18.1c2.7-7.4,11-11.4,18.4-8.9c1.7,0.6,3.3,1.5,4.7,2.6
				c1.4,1.1,2.3,2.3,4.2,2.2c3.3-0.2,5-4.2,3-6.8c-3.8-4.6-10.7-7-16.4-7c-6.1,0-11.9,2.4-16.2,6.7c-9.1,9.1-8.7,24.3,0.7,33
				c6.3,5.9,15.7,7.6,23.9,4.4c1.9-0.8,3.8-1.7,5.4-3c1.5-1.1,3.4-2.5,3.7-4.5C482.2,109.4,477.4,107,474.7,109.7
				C474.7,109.7,476.3,108.1,474.7,109.7z"/>
		</g>
		<g>
			<path class="st1" d="M115.7,95.2c-1-4.4-3.3-8.6-6.3-11.8c-2.1,5.6-8.1,21-9.9,25.2c-2.1,4.9-5.2,9.2-8.9,12.9
				c1.3,0.3,2.6,0.5,3.9,0.5c6.7,0,12.4-4,14.8-9.8C109.9,110.5,114.3,98.7,115.7,95.2z"/>
			<path class="st1" d="M72.3,79.1c-2.7-2-6-3.2-9.6-3.2c-6.2,0-11.8,3.3-14.3,8.6l-9.2,22.8l0,0l0,0c-2.2,5.4-5.6,10.3-9.7,14.3
				c1.3,0.3,2.7,0.5,4.1,0.5c6.5,0,12.1-3.8,14.6-9.4l9.1-23C60,84,65.6,79.7,72.3,79.1z"/>
			<path class="st1" d="M103,79.1c-2.7-2-6.2-3.2-9.8-3.2c-6.3,0-12.1,3.1-14.5,8.6l-9.5,22.8l0,0l0,0c-2.3,5.4-5.6,10.3-9.9,14.3
				c1.4,0.3,2.7,0.5,4.3,0.5c6.7,0,12.4-3.8,15-9.4l9.2-23C90.3,84,96.2,79.7,103,79.1z"/>
		</g>
	</g>
</g>
</svg>
