<svg xmlns="http://www.w3.org/2000/svg" viewBox="0 0 200 70"><defs><style>.cls-1{fill:#fff;}.cls-2{fill:#b1b7b9;stroke:#b1b7b9;stroke-miterlimit:10;}.cls-3{fill:#333;}</style></defs><title>アートボード 1</title><g id="背景"><rect class="cls-1" x="-12" y="-12" width="227" height="95"/></g><g id="ONDEOMA"><g id="ONDEOMA-2" data-name="ONDEOMA"><path class="cls-2" d="M75.19,29a5.91,5.91,0,0,1,4.4,1.81,6.49,6.49,0,0,1,0,8.9,6,6,0,0,1-8.65,0,6.07,6.07,0,0,1-1.77-4.4A6.52,6.52,0,0,1,70,32.11a6,6,0,0,1,2.2-2.3A5.77,5.77,0,0,1,75.19,29Zm.05,1.16a4.65,4.65,0,0,0-2.43.69A4.89,4.89,0,0,0,71,32.69a5.3,5.3,0,0,0-.65,2.61,5,5,0,0,0,1.43,3.59,4.64,4.64,0,0,0,3.45,1.47,4.83,4.83,0,0,0,2.49-.67,4.76,4.76,0,0,0,1.79-1.84,5.31,5.31,0,0,0,.64-2.6,5.18,5.18,0,0,0-.64-2.57,4.88,4.88,0,0,0-1.81-1.84A4.78,4.78,0,0,0,75.24,30.14Z"/><path class="cls-2" d="M88.52,41.21V29.28h.25l7.7,9.15V29.28h1.14V41.21h-.26l-7.64-9v9Z"/><path class="cls-2" d="M105.26,41.21V29.28h2.4a11.9,11.9,0,0,1,3.77.43,5.06,5.06,0,0,1,2.63,2.11,6.56,6.56,0,0,1,.95,3.58,6.44,6.44,0,0,1-.75,3.16,4.9,4.9,0,0,1-2,2,7.16,7.16,0,0,1-3.36.65Zm1.11-1.13h1.34a12.06,12.06,0,0,0,3.33-.31,3.85,3.85,0,0,0,2.05-1.58,5,5,0,0,0,.75-2.79,5.23,5.23,0,0,0-.81-3,4.09,4.09,0,0,0-2.26-1.68,13.24,13.24,0,0,0-3.58-.34h-.82Z"/><path class="cls-2" d="M122.08,29.28h6.63v1.17h-5.47v3.74h5.43v1.17h-5.43V40h5.43v1.17h-6.58Z"/><path class="cls-2" d="M142.66,29a5.91,5.91,0,0,1,4.4,1.81,6.49,6.49,0,0,1,0,8.9,5.77,5.77,0,0,1-4.31,1.83,5.83,5.83,0,0,1-4.34-1.82,6.07,6.07,0,0,1-1.77-4.4,6.52,6.52,0,0,1,.81-3.19,6,6,0,0,1,2.2-2.3A5.78,5.78,0,0,1,142.66,29Zm.05,1.16a4.65,4.65,0,0,0-2.43.69,4.9,4.9,0,0,0-1.8,1.86,5.3,5.3,0,0,0-.65,2.61,5,5,0,0,0,1.43,3.59,4.64,4.64,0,0,0,3.45,1.47,4.83,4.83,0,0,0,2.49-.67A4.75,4.75,0,0,0,147,37.84a5.31,5.31,0,0,0,.64-2.6,5.17,5.17,0,0,0-.64-2.57,4.87,4.87,0,0,0-1.81-1.84A4.78,4.78,0,0,0,142.71,30.14Z"/><path class="cls-2" d="M155.46,41.21l1.66-11.94h.19l4.7,9.8,4.66-9.8h.19l1.67,11.94h-1.13l-1.14-8.54-4.09,8.54h-.3l-4.14-8.6-1.14,8.6Z"/><path class="cls-2" d="M180.34,29.28l5.4,11.94h-1.25l-1.82-3.93h-5l-1.8,3.93H174.6l5.47-11.94Zm-.15,2.54-2,4.32h4Z"/></g></g><g id="ライオン"><path class="cls-3" d="M18,41.87c-.44.52,0,1.28.14,1.83s-.25,1.16-.13,1.76a1.85,1.85,0,0,0,.78,1.08,2.58,2.58,0,0,0,2.51.63,2.1,2.1,0,0,0,1-1.11,7.23,7.23,0,0,1,1.66-3,5.18,5.18,0,0,1,1.93-1c.3-.1.84-.25,1-.53a3.81,3.81,0,0,0-2.25-.32,4.42,4.42,0,0,0-1.79.88,3.71,3.71,0,0,0-1.22,1.49,7.28,7.28,0,0,1-.45,1.3.87.87,0,0,1-1.18.21.67.67,0,0,1-.41-.94c.19-.77,1.71-1.84,2.22-2.44s0-2.71,0-2.71c-.57-2.08-6.51-.08-6.51-.08A2.65,2.65,0,0,1,14,36.2a2.79,2.79,0,0,0,1.33-3c-.07-.67-2.43-.23-2.43-.23l.21-.13.42-.28.71-.46.94-.59,1.08-.63,1.16-.65,1.2-.65c.4-.21.8-.41,1.21-.6s.79-.34,1.19-.48.78-.25,1.17-.36c.15,0,.27,0,.32-.21s.16-.4.24-.6.26-.62.4-.92.32-.67.5-1a6.12,6.12,0,0,1,.56-.86,1.45,1.45,0,0,1,.56-.47l.06,0s.41-.18.39.88.63,0,.91-.29c.48-.57.77-1.31,1.22-1.9A5.94,5.94,0,0,1,29.54,21a5.11,5.11,0,0,1,3-.31,4.17,4.17,0,0,0,.79,0,11.69,11.69,0,0,0,4-1.68c2.49-1.34,4.78-3.42,7.67-3.82,2.33-.33,5.51.47,6.67,2.77C48.7,12.11,41.88,14.2,37.54,17c-1,.63-3.23,2.5-4.41,2.44-7-.4-6.36,3.11-8.85,4C22.77,24,21.79,27,21,27.35c-5,1.83-10.11,5-10,6.46a3.64,3.64,0,0,0,.74,2.5c.43.38-.57,1.59,2.37,3.06.14.07,1.24.91,1.7,1.19a12.9,12.9,0,0,0,2.09,1.05s-1-1.38-.53-1.89c0,0,2.17-1.3,3.23-1.13s1,2,.5,2.64a6.87,6.87,0,0,1-1.32,1.26A1,1,0,0,1,18,41.87Z"/><path class="cls-3" d="M33.71,22.62h0c.09,1.23,3.46.16,4.05,0A34.13,34.13,0,0,0,43,21.13c1.62-.59,2.76-1.35,4.39-1.38,1.94,0,3,.89,4.4,2.1a4.31,4.31,0,0,0,2.74,1,4,4,0,0,0,2.88-1c.94-1,.43-2.33-.22-3.28.23,1,.42,2-.5,2.84a2.88,2.88,0,0,1-3,.39C52.48,21.27,52,20.09,51,19.32a4.81,4.81,0,0,0-1.81-.93c-2.64-.73-4.84-.14-7.37.83-1.32.5-2.21.77-3.6,1.19-.71.22-2.22.6-2.93.8S33.67,21.87,33.71,22.62Z"/><path class="cls-3" d="M58.21,28.78c1.33,2.86-2.37,4.3-5.59-.4-1.53-2.22-3.38-4.13-6.05-4.81a18.06,18.06,0,0,0-11.27.78.63.63,0,0,1-.12.05.41.41,0,0,0-.35.48.45.45,0,0,0,.54.31,25.09,25.09,0,0,1,3.91-.46,21.62,21.62,0,0,1,7.9,1,8.22,8.22,0,0,1,3.75,2.85,13.13,13.13,0,0,0,3.22,3.29C56.84,33.63,60.58,32.16,58.21,28.78Z"/><path class="cls-3" d="M53.58,44.46c1.25,1,2.57-.68,2.57-.68a2.19,2.19,0,0,1-2.82,1.28c-1.71-.64-2.62-2.87-2.84-6.3-.3-4.76-2.67-6.73-5.37-8.6a15.68,15.68,0,0,0-9.07-2.6.4.4,0,0,1-.24-.77c.25-.08,6.09-1.81,10.59,1.3a12.63,12.63,0,0,1,5.5,10.18C52,39.76,52.46,43.59,53.58,44.46Z"/><path class="cls-3" d="M35.86,30.1a.4.4,0,0,0,.33.46,8.26,8.26,0,0,1,3.62,1.86c2.39,2.05,3.7,5.36,3.81,9.57.05,2.11.64,3.57,1.75,4.33,1.46,1,4.85,1,5.2-1.25a4.59,4.59,0,0,1-3.87.62c-1.59-.64-1.44-2.35-1.48-3.79-.14-5.64-2.32-8.65-4.13-10.19a9.64,9.64,0,0,0-4.79-2A.4.4,0,0,0,35.86,30.1Z"/><path class="cls-3" d="M29.29,33a.4.4,0,0,0,0,.57c.33.28,1.34,1.14-.6,5.83a12,12,0,0,1-3.41,4c-2.09,1.86-4.25,3.79-4.13,6.92C21.27,52,22.67,53.07,23.9,54a4.48,4.48,0,0,1,1.77,1.79c.5,1.29-.11,2.07-.86,2.93a11.27,11.27,0,0,1-1.25,1c1.19-.58,3.47-1.33,3.73-2.79a2.68,2.68,0,0,0-.15-1.65A4.31,4.31,0,0,0,26,54c-.27-.23-.55-.45-.83-.66-1.14-.87-2.32-1.76-2.37-3.11-.11-2.75,1.82-4.47,3.86-6.29a12.75,12.75,0,0,0,3.62-4.31c1.91-4.64,1.09-6-.39-6.7C29.66,32.82,29.44,32.78,29.29,33Z"/><path class="cls-3" d="M28.55,53.59a8,8,0,0,0,4.7,2.95,3.38,3.38,0,0,0,3.22-.8A1.61,1.61,0,0,0,36,53.39a3.59,3.59,0,0,0-2.19.09,2.27,2.27,0,1,1,3.39,3c-1,1.21-3.25,1.22-4.58,1C29.78,57,27.08,54.35,26,51.75c-.74-1.71.24-6.63,2.65-7,2-.29-.49,2-.77,2.56A5.3,5.3,0,0,0,28.55,53.59Z"/><path class="cls-3" d="M28.79,25.06s-.89.15.12-.91,2.47-2.41,4.42,1.22-.47,4.57-1.19,4.73c-.35.08-.64-.25-.22-.86a3.18,3.18,0,0,0-.07-3A2.1,2.1,0,0,0,28.79,25.06Z"/><path class="cls-3" d="M21.23,30.43a2.72,2.72,0,0,1,.69-.65,10,10,0,0,1,2.36-.91c-.06.62-.31,1.87-.87,2.14a6.81,6.81,0,0,1-2.58.54A5.1,5.1,0,0,1,21.23,30.43Z"/></g></svg>