<?xml version="1.0" encoding="utf-8"?>
<!-- Generator: Adobe Illustrator 23.0.1, SVG Export Plug-In . SVG Version: 6.00 Build 0)  -->
<svg version="1.1" id="レイヤー_1" xmlns="http://www.w3.org/2000/svg" xmlns:xlink="http://www.w3.org/1999/xlink" x="0px"
	 y="0px" viewBox="0 0 300 105" style="enable-background:new 0 0 300 105;" xml:space="preserve">
<style type="text/css">
	.st0{fill:#718BC6;}
	.st1{fill:#004097;}
	.st2{fill:#231C1D;}
</style>
<g>
	<g>
		<g>
			<g>
				<path class="st0" d="M200.3,47.29c2.77,0.79,7.17-3.03,11.3-16.53c4.14-13.5,2.47-22.04-0.83-23.14
					c-3.3-1.1-8.26,5.51-11.58,16.53C195.89,35.17,196.45,46.19,200.3,47.29"/>
				<path class="st0" d="M192.26,49.72c1.57-1.85,2.13-7.59-4.54-16.2c-6.66-8.61-13.56-10.47-15.58-7.71
					c-1.88,2.58-0.84,9.24,4.61,16.22C182.22,49,189.7,52.71,192.26,49.72"/>
				<path class="st0" d="M186.79,58.29c-0.14-1.85-3.6-4.93-14.06-4.91c-10.46,0.02-16.55,3.43-16.11,6.02
					c0.4,2.41,5.61,4.96,14.13,4.88C179.27,64.21,186.99,61.33,186.79,58.29"/>
				<path class="st1" d="M188.53,66.89c-0.73-1.06-4.11-1.18-11.08,4.11c-6.96,5.3-9.85,10.44-8.67,11.78
					c1.13,1.27,5.48,0.18,11.13-4.16C185.56,74.28,189.73,68.63,188.53,66.89"/>
				<path class="st1" d="M196.29,68.71c-1.36-0.47-4.42,1.81-7.05,11.67c-2.63,9.86-1.75,16.69,0.17,17.1
					c1.82,0.39,4.96-3.7,7.07-11.75C198.59,77.67,198.52,69.48,196.29,68.71"/>
				<path class="st0" d="M203.81,65.86c-1.47,1.55-1.87,6.1,3.36,13.85c5.24,7.74,11.92,9.19,13.8,6.86
					c1.78-2.17,0.55-7.64-3.74-13.91C212.92,66.39,206.18,63.35,203.81,65.86"/>
				<path class="st0" d="M207.68,59.76c0.17,3.13,5.61,7.81,22.84,8.24c17.23,0.42,27.87-5.39,27.62-10.09
					c-0.26-4.71-9.92-7.97-23.96-8.24C220.13,49.42,207.42,54.69,207.68,59.76"/>
				<path class="st0" d="M207.54,51.26c1.69,2.58,8.28,1.8,22.13-8.54c13.84-10.34,18.78-20.46,16.97-23.25
					c-1.64-2.57-10.9,0.17-22.15,8.65C213.25,36.61,205.2,47.64,207.54,51.26"/>
			</g>
			<path class="st2" d="M64.98,40.68c-10.81,0-23.05,6.76-23.12,21.27c-0.03,9.84,7.08,14.3,17,14.39
				c15.43,0.13,23.4-12.23,23.17-22.06C81.83,45.92,74.9,40.68,64.98,40.68z M60.38,67.08c-3.15,0.03-5.71-2.17-5.24-7.07
				c0.51-5.35,4.22-10.02,8.07-9.83c2.61,0.13,5.15,1.95,4.89,5.92C67.64,63.13,64.91,67.04,60.38,67.08z"/>
			<path class="st2" d="M111.34,40.68c-7.88,0-11.14,4.86-11.14,4.86l0.13-4.1h-12.3l-8.01,47.53h12.94l2.88-16.34
				c0,0,2.8,3.71,9.32,3.71c11.46,0,17.12-10.29,17.5-21.49C122.97,46.01,119.22,40.68,111.34,40.68z M109.32,57.45
				c-0.34,5.15-2.6,8.66-6.68,8.72c-2.65,0.01-4.91-1.67-4.72-5.57c0.25-4.83,2.48-9.89,7.34-9.78
				C107.94,50.88,109.63,52.44,109.32,57.45z"/>
			<path class="st2" d="M126.73,41.58l-1.6,9.6H130c0,0-1.6,8.92-2.88,17.04c-1.28,8.13,8.32,8.13,10.5,8.13
				c2.18,0,9.2-0.84,9.2-0.84l1.48-8.77c0,0-3.06,0.1-5.73,0.2c-2.67,0.1-1.83-1.98,0.49-15.85l7.88,0.05l1.61-9.64h-7.88
				l2.15-12.79l-14.16,6.64l-1.05,6.24H126.73z"/>
		</g>
	</g>
</g>
</svg>
