<?xml version="1.0" encoding="UTF-8" standalone="no"?>
<svg
   xmlns:dc="http://purl.org/dc/elements/1.1/"
   xmlns:cc="http://creativecommons.org/ns#"
   xmlns:rdf="http://www.w3.org/1999/02/22-rdf-syntax-ns#"
   xmlns:svg="http://www.w3.org/2000/svg"
   xmlns="http://www.w3.org/2000/svg"
   xmlns:sodipodi="http://sodipodi.sourceforge.net/DTD/sodipodi-0.dtd"
   xmlns:inkscape="http://www.inkscape.org/namespaces/inkscape"
   viewBox="0 0 200 70"
   height="70"
   width="200"
   xml:space="preserve"
   id="svg2"
   version="1.1"
   sodipodi:docname="SepteniOriginal_logo_scalamatsuri.svg"
   inkscape:version="0.92.2 (5c3e80d, 2017-08-06)"><sodipodi:namedview
     pagecolor="#ffffff"
     bordercolor="#666666"
     borderopacity="1"
     objecttolerance="10"
     gridtolerance="10"
     guidetolerance="10"
     inkscape:pageopacity="0"
     inkscape:pageshadow="2"
     inkscape:window-width="1304"
     inkscape:window-height="786"
     id="namedview3839"
     showgrid="false"
     inkscape:zoom="3.1465496"
     inkscape:cx="150.51809"
     inkscape:cy="52.85654"
     inkscape:window-x="275"
     inkscape:window-y="98"
     inkscape:window-maximized="0"
     inkscape:current-layer="svg2" /><metadata
     id="metadata8"><rdf:RDF><cc:Work
         rdf:about=""><dc:format>image/svg+xml</dc:format><dc:type
           rdf:resource="http://purl.org/dc/dcmitype/StillImage" /><dc:title></dc:title></cc:Work></rdf:RDF></metadata><defs
     id="defs6"><clipPath
       id="clipPath18"
       clipPathUnits="userSpaceOnUse"><path
         id="path16"
         d="M 0,858.897 H 612.288 V 0 H 0 Z"
         inkscape:connector-curvature="0" /></clipPath></defs><g
     transform="matrix(0.40912076,0,0,-0.40912076,-28.920768,210.63875)"
     id="g10"><g
       id="g12"><g
         clip-path="url(#clipPath18)"
         id="g14"><g
           transform="translate(110.9253,412.7803)"
           id="g20"><path
             id="path22"
             style="fill:#4bc0e5;fill-opacity:1;fill-rule:nonzero;stroke:none"
             d="m 0,0 c -10.325,-2.352 -17.273,3.744 -15.503,13.558 1.776,9.811 11.575,15.521 21.764,12.661 L 36.626,17.756 C 46.793,14.914 46.721,10.67 36.387,8.306 Z"
             inkscape:connector-curvature="0" /></g><g
           transform="translate(214.9531,438.999)"
           id="g24"><path
             id="path26"
             style="fill:#4bc0e5;fill-opacity:1;fill-rule:nonzero;stroke:none"
             d="m 0,0 c 10.184,2.86 17.177,11.981 15.568,20.302 -1.63,8.315 -9.698,9.737 -17.987,3.136 L -33.868,-1.646 c -8.256,-6.594 -6.698,-9.659 3.496,-6.823 z"
             inkscape:connector-curvature="0" /></g><g
           transform="translate(144.0444,473.5898)"
           id="g28"><path
             id="path30"
             style="fill:#e94c4b;fill-opacity:1;fill-rule:nonzero;stroke:none"
             d="m 0,0 c -4.396,9.614 -15.071,13.733 -23.742,9.161 -8.659,-4.574 -8.982,-13.713 -0.726,-20.314 L 6.987,-36.237 c 8.267,-6.594 11.44,-4.114 7.056,5.508 z"
             inkscape:connector-curvature="0" /></g><g
           transform="translate(166.0688,486.1108)"
           id="g32"><path
             id="path34"
             style="fill:#dc7db0;fill-opacity:1;fill-rule:nonzero;stroke:none"
             d="M 0,0 C 0,10.569 6.754,16.013 14.982,12.094 23.244,8.175 26.4,-2.907 22.02,-12.521 L 7.983,-43.25 C 3.598,-52.872 0,-52.098 0,-41.519 Z"
             inkscape:connector-curvature="0" /></g><g
           transform="translate(182.2632,421.0859)"
           id="g36"><path
             id="path38"
             style="fill:#e94c4b;fill-opacity:1;fill-rule:nonzero;stroke:none"
             d="m 0,0 c -10.3,2.364 -11.759,-0.831 -3.233,-7.088 l 23.037,-16.925 c 8.529,-6.268 19.974,-6.246 25.414,0.029 5.459,6.277 1.498,13.327 -8.824,15.678 z"
             inkscape:connector-curvature="0" /></g><g
           transform="translate(142.5186,376.5098)"
           id="g40"><path
             id="path42"
             style="fill:#e94c4b;fill-opacity:1;fill-rule:nonzero;stroke:none"
             d="m 0,0 c -4.586,-9.524 -13.323,-11.362 -19.417,-4.066 -6.105,7.278 -4.111,18.361 4.397,24.629 L 8.044,37.488 c 8.53,6.257 11.748,3.571 7.156,-5.955 z"
             inkscape:connector-curvature="0" /></g><g
           transform="translate(182.0073,359.4229)"
           id="g44"><path
             id="path46"
             style="fill:#4bc0e5;fill-opacity:1;fill-rule:nonzero;stroke:none"
             d="m 0,0 c -8.771,0.122 -15.938,8.882 -15.938,19.466 v 27.256 c 0,10.578 3.754,11.424 8.345,1.898 L 7.596,17.087 C 12.177,7.563 8.764,-0.134 0,0"
             inkscape:connector-curvature="0" /></g><g
           transform="translate(494.8311,430.9028)"
           id="g48"><path
             id="path50"
             style="fill:#595757;fill-opacity:1;fill-rule:nonzero;stroke:none"
             d="m 0,0 h -9.173 v 20.076 c 0,1.591 -0.116,2.834 -0.356,3.734 -0.218,0.896 -0.548,1.678 -0.99,2.326 -0.436,0.645 -1.021,1.14 -1.718,1.503 -0.684,0.349 -1.504,0.534 -2.449,0.534 -1.144,0 -2.335,-0.437 -3.537,-1.282 -1.195,-0.855 -2.422,-2.104 -3.723,-3.735 V 0 h -9.223 v 35.548 h 7.875 v -5.234 c 1.793,1.969 3.639,3.425 5.52,4.399 1.841,0.967 3.803,1.459 5.821,1.459 2.216,0 4.082,-0.364 5.601,-1.098 1.549,-0.726 2.771,-1.728 3.705,-2.983 0.948,-1.251 1.608,-2.712 2.028,-4.407 C -0.195,26.004 0,23.982 0,21.613 Z"
             inkscape:connector-curvature="0" /></g><g
           transform="translate(291.4819,456.145)"
           id="g52"><path
             id="path54"
             style="fill:#595757;fill-opacity:1;fill-rule:nonzero;stroke:none"
             d="m 0,0 c -1.894,1.539 -3.815,2.553 -7.34,4.396 l -0.783,0.422 c -5.256,2.777 -6.251,4.43 -6.251,6.516 0,2.408 1.839,4.076 4.48,4.076 1.325,0 3.275,-0.392 4.688,-3.811 L -4.48,9.882 3.168,14.105 2.52,15.513 c -2.476,5.419 -6.872,8.276 -12.704,8.276 -7.86,0 -13.552,-5.453 -13.552,-12.954 0,-6.392 3.637,-9.534 10.85,-13.412 3.803,-2.076 5.853,-3.204 6.92,-4.12 1.262,-1.11 1.838,-2.41 1.838,-4.229 0,-3.494 -2.631,-5.938 -6.39,-5.938 -3.856,0 -6.743,2.073 -7.911,5.689 l -0.574,1.766 -8.514,-3.829 0.659,-1.506 c 2.888,-6.667 8.837,-10.498 16.34,-10.498 9.116,0 15.725,6.154 15.725,14.652 C 5.207,-6.178 3.513,-2.706 0,0"
             inkscape:connector-curvature="0" /></g><path
           id="path56"
           style="fill:#595757;fill-opacity:1;fill-rule:nonzero;stroke:none"
           d="m 516.22,430.903 h -9.223 v 35.548 h 9.223 z"
           inkscape:connector-curvature="0" /><g
           transform="translate(517.1416,478.1685)"
           id="g58"><path
             id="path60"
             style="fill:#595757;fill-opacity:1;fill-rule:nonzero;stroke:none"
             d="m 0,0 c 0,-3.056 -2.465,-5.524 -5.523,-5.524 -3.057,0 -5.537,2.468 -5.537,5.524 0,3.053 2.48,5.527 5.537,5.527 C -2.465,5.527 0,3.053 0,0"
             inkscape:connector-curvature="0" /></g><g
           transform="translate(410.6826,432.4243)"
           id="g62"><path
             id="path64"
             style="fill:#595757;fill-opacity:1;fill-rule:nonzero;stroke:none"
             d="m 0,0 c 0,0 -0.683,-0.444 -1.117,-0.621 -0.412,-0.192 -0.909,-0.34 -1.487,-0.471 -0.575,-0.14 -1.19,-0.238 -1.865,-0.316 -0.671,-0.071 -1.346,-0.113 -2.026,-0.113 -1.856,0 -3.438,0.233 -4.755,0.697 -1.33,0.467 -2.469,1.178 -3.34,2.139 -0.855,0.963 -1.503,2.176 -1.939,3.642 -0.379,1.465 -0.638,3.195 -0.638,5.187 V 26.86 h -5.311 v 7.459 h 5.311 v 8.816 h 9.189 V 34.319 H 0.593 V 26.86 H -7.978 V 11.546 c 0,-1.79 0.287,-3.12 0.857,-4.008 0.553,-0.899 1.558,-1.347 3.025,-1.347 0.47,0 0.917,0.041 1.27,0.135 C -1.229,6.7 0,7.285 0,7.285 Z"
             inkscape:connector-curvature="0" /></g><g
           transform="translate(321.9492,461.0444)"
           id="g66"><path
             id="path68"
             style="fill:#595757;fill-opacity:1;fill-rule:nonzero;stroke:none"
             d="M 0,0 C -1.117,0 -2.062,-0.198 -2.922,-0.606 -3.787,-1.003 -4.504,-1.537 -5.111,-2.229 -5.73,-2.913 -6.225,-3.709 -6.574,-4.637 -6.922,-5.548 -7.168,-6.53 -7.268,-7.558 h 13.77 c 0,1.028 -0.146,2.01 -0.415,2.921 -0.29,0.928 -0.709,1.724 -1.245,2.408 C 4.301,-1.537 3.635,-1.003 2.831,-0.606 2.005,-0.198 1.06,0 0,0 m 3.431,-23.233 c 1.635,0 3.4,0.173 5.193,0.511 1.804,0.334 3.654,0.825 5.503,1.442 v -6.836 c -1.123,-0.475 -2.794,-0.94 -5.091,-1.367 -2.294,-0.434 -4.673,-0.659 -7.149,-0.659 -2.481,0 -4.826,0.318 -7.055,0.963 -2.233,0.633 -4.193,1.668 -5.859,3.098 -1.66,1.416 -2.965,3.265 -3.939,5.53 -0.993,2.265 -1.479,5.016 -1.479,8.241 0,3.19 0.456,5.978 1.373,8.366 0.916,2.388 2.146,4.366 3.681,5.935 1.541,1.568 3.329,2.74 5.328,3.533 1.973,0.782 4.034,1.171 6.162,1.171 2.195,0 4.264,-0.341 6.13,-1.008 1.854,-0.688 3.474,-1.737 4.82,-3.19 1.375,-1.444 2.423,-3.31 3.217,-5.589 0.738,-2.276 1.145,-4.979 1.145,-8.094 -0.038,-1.204 -0.066,-2.229 -0.127,-3.069 H -7.691 c 0.127,-1.621 0.473,-3 1.083,-4.149 0.602,-1.142 1.389,-2.064 2.383,-2.779 0.978,-0.701 2.102,-1.228 3.409,-1.561 1.296,-0.318 2.703,-0.489 4.247,-0.489"
             inkscape:connector-curvature="0" /></g><g
           transform="translate(436.3623,461.0444)"
           id="g70"><path
             id="path72"
             style="fill:#595757;fill-opacity:1;fill-rule:nonzero;stroke:none"
             d="m 0,0 c -1.08,0 -2.051,-0.198 -2.89,-0.606 -0.846,-0.397 -1.58,-0.931 -2.2,-1.623 -0.61,-0.684 -1.1,-1.48 -1.468,-2.408 -0.335,-0.911 -0.609,-1.893 -0.71,-2.921 H 6.519 c 0,1.028 -0.123,2.01 -0.418,2.921 C 5.82,-3.709 5.418,-2.913 4.871,-2.229 4.317,-1.537 3.658,-1.003 2.854,-0.606 2.04,-0.198 1.082,0 0,0 m 3.44,-23.233 c 1.664,0 3.403,0.173 5.207,0.511 1.805,0.334 3.648,0.825 5.514,1.442 v -6.836 c -1.114,-0.475 -2.809,-0.94 -5.124,-1.367 -2.301,-0.434 -4.652,-0.659 -7.127,-0.659 -2.469,0 -4.838,0.318 -7.059,0.963 -2.225,0.633 -4.186,1.668 -5.844,3.098 -1.66,1.416 -2.978,3.265 -3.95,5.53 -0.977,2.265 -1.486,5.016 -1.486,8.241 0,3.19 0.458,5.978 1.38,8.366 0.933,2.388 2.162,4.366 3.691,5.935 1.544,1.568 3.336,2.74 5.308,3.533 1.977,0.782 4.073,1.171 6.155,1.171 2.207,0 4.262,-0.341 6.157,-1.008 1.864,-0.688 3.473,-1.737 4.821,-3.19 1.401,-1.444 2.436,-3.31 3.194,-5.589 0.787,-2.276 1.158,-4.979 1.158,-8.094 -0.025,-1.204 -0.079,-2.229 -0.119,-3.069 H -7.647 c 0.101,-1.621 0.463,-3 1.073,-4.149 0.613,-1.142 1.395,-2.064 2.357,-2.779 0.994,-0.701 2.133,-1.228 3.434,-1.561 1.302,-0.318 2.693,-0.489 4.223,-0.489"
             inkscape:connector-curvature="0" /></g><g
           transform="translate(365.3066,458.8911)"
           id="g74"><path
             id="path76"
             style="fill:#595757;fill-opacity:1;fill-rule:nonzero;stroke:none"
             d="m 0,0 c -4.568,0 -7.646,-3.781 -7.646,-9.48 0,-5.754 3.078,-9.533 7.709,-9.533 4.629,0 7.53,3.712 7.53,9.664 C 7.593,-3.715 4.609,0 0,0 m 0.52,-26.855 c -3.736,0 -6.966,1.321 -9.52,4.049 v -19.166 h -8.646 V 6.581 H -9 v -2.81 c 2.554,2.653 5.784,4.069 9.52,4.069 8.66,0 14.591,-7.106 14.591,-17.391 0,-10.21 -5.931,-17.304 -14.591,-17.304"
             inkscape:connector-curvature="0" /></g><g
           transform="translate(281.1592,406.1611)"
           id="g78"><path
             id="path80"
             style="fill:#d63832;fill-opacity:1;fill-rule:nonzero;stroke:none"
             d="m 0,0 c -7.164,0 -12.51,-6.502 -12.51,-15.209 0,-8.818 5.346,-15.211 12.731,-15.211 7.44,0 12.731,6.393 12.731,15.377 C 12.952,-6.281 7.551,0 0,0 m 0.221,-34.721 c -10.14,0 -17.415,8.215 -17.415,19.623 0,11.352 7.384,19.399 17.746,19.399 9.755,0 17.084,-8.322 17.084,-19.51 0,-11.297 -7.329,-19.512 -17.415,-19.512"
             inkscape:connector-curvature="0" /></g><g
           transform="translate(329.0742,390.3467)"
           id="g82"><path
             id="path84"
             style="fill:#d63832;fill-opacity:1;fill-rule:nonzero;stroke:none"
             d="m 0,0 c -0.991,1.047 -1.928,1.543 -3.031,1.543 -1.819,0 -3.362,-1.379 -4.189,-3.693 v -15.873 h -4.243 V 4.738 H -7.22 V 2.811 c 1.048,1.873 2.756,2.81 4.907,2.81 1.267,0 2.313,-0.332 3.69,-1.103 z"
             inkscape:connector-curvature="0" /></g><path
           id="path86"
           style="fill:#d63832;fill-opacity:1;fill-rule:nonzero;stroke:none"
           d="m 347.456,395.085 h 4.244 v -22.762 h -4.244 z m 2.15,4.963 c -1.653,0 -2.974,1.375 -2.974,2.974 0,1.598 1.378,2.92 2.974,2.92 1.6,0 2.921,-1.322 2.921,-2.92 0,-1.654 -1.321,-2.974 -2.921,-2.974"
           inkscape:connector-curvature="0" /><g
           transform="translate(381.0342,391.8896)"
           id="g88"><path
             id="path90"
             style="fill:#d63832;fill-opacity:1;fill-rule:nonzero;stroke:none"
             d="m 0,0 c -4.189,0 -6.835,-3.197 -6.835,-8.322 0,-4.852 2.757,-8.047 6.89,-8.047 4.189,0 7.001,3.252 7.001,8.158 C 7.056,-3.252 4.298,0 0,0 m 9.533,-26.949 c -1.817,-2.701 -5.178,-4.192 -9.368,-4.192 -6.504,0 -10.25,3.42 -10.746,9.756 h 4.242 c 0.332,-3.912 2.425,-5.676 6.559,-5.676 4.521,0 6.668,2.094 6.668,6.448 v 3.031 c -2.039,-1.928 -4.297,-2.811 -7.161,-2.811 -6.506,0 -10.97,5.016 -10.97,12.237 0,7.218 4.464,12.234 10.97,12.234 2.807,0 5.178,-0.937 7.161,-2.865 v 1.982 h 4.243 v -23.201 c 0,-3.308 -0.44,-5.18 -1.598,-6.943"
             inkscape:connector-curvature="0" /></g><path
           id="path92"
           style="fill:#d63832;fill-opacity:1;fill-rule:nonzero;stroke:none"
           d="m 411.328,395.085 h 4.242 v -22.762 h -4.242 z m 2.15,4.963 c -1.654,0 -2.976,1.375 -2.976,2.974 0,1.598 1.376,2.92 2.976,2.92 1.597,0 2.92,-1.322 2.92,-2.92 0,-1.654 -1.323,-2.974 -2.92,-2.974"
           inkscape:connector-curvature="0" /><g
           transform="translate(448.0635,372.3232)"
           id="g94"><path
             id="path96"
             style="fill:#d63832;fill-opacity:1;fill-rule:nonzero;stroke:none"
             d="m 0,0 v 14.715 c 0,1.82 -0.057,2.699 -0.441,3.418 -0.497,0.937 -1.488,1.488 -2.644,1.488 -2.206,0 -4.353,-1.433 -5.954,-3.969 V 0 h -4.243 v 22.762 h 4.243 v -1.707 c 1.985,1.818 3.858,2.59 6.228,2.59 2.754,0 5.016,-1.157 6.116,-3.198 0.718,-1.322 0.939,-2.646 0.939,-5.787 V 0 Z"
             inkscape:connector-curvature="0" /></g><g
           transform="translate(481.7363,391.8896)"
           id="g98"><path
             id="path100"
             style="fill:#d63832;fill-opacity:1;fill-rule:nonzero;stroke:none"
             d="m 0,0 c -4.19,0 -6.836,-3.197 -6.836,-8.322 0,-4.852 2.756,-8.047 6.89,-8.047 4.188,0 7.053,3.306 7.053,8.213 C 7.107,-3.307 4.242,0 0,0 m 6.886,-19.566 v 1.984 c -1.982,-1.928 -4.354,-2.867 -7.161,-2.867 -6.452,0 -10.97,5.017 -10.97,12.293 0,7.218 4.518,12.234 10.97,12.234 2.807,0 5.179,-0.937 7.161,-2.865 v 1.982 h 4.244 v -22.761 z"
             inkscape:connector-curvature="0" /></g><path
           id="path102"
           style="fill:#d63832;fill-opacity:1;fill-rule:nonzero;stroke:none"
           d="m 511.996,409.579 h 4.242 v -37.256 h -4.242 z"
           inkscape:connector-curvature="0" /></g></g></g></svg>
