<?xml version="1.0" encoding="utf-8"?>
<!-- Generator: Adobe Illustrator 23.0.1, SVG Export Plug-In . SVG Version: 6.00 Build 0)  -->
<svg version="1.1" id="Layer_1" xmlns="http://www.w3.org/2000/svg" xmlns:xlink="http://www.w3.org/1999/xlink" x="0px" y="0px"
	 viewBox="0 0 400 140" style="enable-background:new 0 0 400 140;" xml:space="preserve">
<style type="text/css">
	.st0{fill:#F7B418;}
	.st1{fill:#D82328;}
</style>
<g>
	<path class="st0" d="M357.63,115.32H42.93c-12.81,0-23.37-10.18-23.37-22.8V47.48c0-12.63,10.55-22.8,23.37-22.8h314.7
		c12.81,0,23.37,10.18,23.37,22.8v45.04C381,105.14,370.45,115.32,357.63,115.32z"/>
	<g>
		<g>
			<path class="st1" d="M357.07,116.45H42.37C29.56,116.45,19,106.09,19,93.08V46.92c0-12.81,10.55-23.37,23.37-23.37h314.7
				c12.81,0,23.37,10.55,23.37,23.37v46.17C380.43,106.09,369.88,116.45,357.07,116.45z M42.37,26.75
				c-11.12,0-20.16,9.05-20.16,20.16v46.17c0,11.12,9.05,20.16,20.16,20.16h314.7c11.12,0,20.16-9.05,20.16-20.16V46.92
				c0-11.12-9.05-20.16-20.16-20.16C357.07,26.75,42.37,26.75,42.37,26.75z"/>
		</g>
		<g>
			<g>
				<path class="st1" d="M51.41,94.21v1.88l0,0c-0.57-0.75-1.32-0.94-2.26-0.94c-0.38,0-0.75,0-1.13,0.19s-0.75,0.38-1.13,0.75
					c-0.19,0.38-0.38,0.75-0.38,1.32s0,0.94,0.38,1.32c0.19,0.38,0.57,0.75,1.13,0.94c0.38,0.19,0.75,0.19,1.13,0.19
					c0.94,0,1.7-0.38,2.45-1.13l0,0l0,0v1.88c-0.75,0.38-1.51,0.75-2.45,0.75c-0.75,0-1.51-0.19-2.07-0.57
					c-0.57-0.38-1.13-0.75-1.51-1.51C45.19,98.71,45,97.96,45,97.4c0-0.75,0.19-1.32,0.57-1.88c0.38-0.57,0.75-1.13,1.32-1.51
					c0.57-0.38,1.51-0.57,2.45-0.57c0.38,0,0.75,0,1.13,0.19C50.66,93.84,51.04,94.03,51.41,94.21z"/>
			</g>
			<g>
				<path class="st1" d="M72.33,99.11c-0.38,0.38-0.94,0.75-1.7,0.75c-0.75,0-1.32-0.19-1.7-0.75c-0.38-0.38-0.75-1.13-0.75-1.7
					c0-0.75,0.19-1.32,0.75-1.7c0.38-0.38,0.94-0.75,1.7-0.75c0.75,0,1.32,0.19,1.7,0.75c0.38,0.38,0.75,0.94,0.75,1.7
					S72.71,98.74,72.33,99.11z M73.46,94.59c-0.75-0.75-1.7-1.13-2.83-1.13c-1.13,0-2.07,0.38-2.83,1.13
					c-0.75,0.75-1.13,1.7-1.13,2.83c0,1.13,0.38,2.07,1.13,2.83c0.75,0.75,1.7,1.13,2.83,1.13c1.13,0,2.07-0.38,2.83-1.13
					c0.75-0.75,1.13-1.7,1.13-2.83C74.59,96.48,74.21,95.53,73.46,94.59z"/>
			</g>
			<g>
				<path class="st1" d="M97.58,93.65v7.54l0,0h-1.32l0,0v-5.28L94,98.74l-2.45-2.83v5.28l0,0h-1.32l0,0v-7.54l0,0h1.32l0,0
					l2.26,2.83l2.45-2.83L97.58,93.65L97.58,93.65z"/>
			</g>
			<g>
				<path class="st1" d="M115.86,93.65v7.54l0,0h-1.32l0,0v-7.54l0,0H115.86C115.67,93.65,115.86,93.65,115.86,93.65z"/>
			</g>
			<g>
				<path class="st1" d="M138.85,94.21v1.88l0,0c-0.57-0.75-1.32-0.94-2.26-0.94c-0.38,0-0.75,0-1.13,0.19s-0.75,0.38-1.13,0.75
					c-0.19,0.38-0.38,0.75-0.38,1.32s0,0.94,0.38,1.32c0.19,0.38,0.57,0.75,1.13,0.94c0.38,0.19,0.75,0.19,1.13,0.19
					c0.94,0,1.7-0.38,2.45-1.13l0,0l0,0v1.88c-0.75,0.38-1.51,0.75-2.45,0.75c-0.75,0-1.51-0.19-2.07-0.57
					c-0.57-0.38-1.13-0.75-1.51-1.51c-0.38-0.57-0.57-1.32-0.57-1.88c0-0.75,0.19-1.32,0.57-1.88s0.75-1.13,1.32-1.51
					c0.57-0.38,1.51-0.57,2.45-0.57c0.38,0,0.75,0,1.13,0.19C138.1,93.84,138.47,94.03,138.85,94.21z"/>
			</g>
			<g>
				<path class="st1" d="M169,93.65v1.51l0,0h-2.26v6.03l0,0h-1.32l0,0v-6.03c0,0-0.75,0-2.26,0l0,0v-1.51l0,0H169L169,93.65z"/>
			</g>
			<g>
				<path class="st1" d="M190.11,99.11c-0.38,0.38-0.94,0.75-1.7,0.75c-0.75,0-1.32-0.19-1.7-0.75c-0.38-0.38-0.75-1.13-0.75-1.7
					c0-0.75,0.19-1.32,0.75-1.7c0.38-0.38,0.94-0.75,1.7-0.75c0.75,0,1.32,0.19,1.7,0.75c0.38,0.38,0.75,0.94,0.75,1.7
					S190.67,98.74,190.11,99.11z M191.24,94.59c-0.75-0.75-1.7-1.13-2.83-1.13s-2.07,0.38-2.83,1.13c-0.75,0.75-1.13,1.7-1.13,2.83
					c0,1.13,0.38,2.07,1.13,2.83c0.75,0.75,1.7,1.13,2.83,1.13s2.07-0.38,2.83-1.13c0.75-0.75,1.13-1.7,1.13-2.83
					C192.37,96.48,191.99,95.53,191.24,94.59z"/>
			</g>
			<g>
				<path class="st1" d="M210.46,95.16c0.19,0,0.38,0.19,0.57,0.38c0,0,0,0.19,0,0.38s0,0.38-0.19,0.57s-0.38,0.19-0.57,0.19
					c0,0-0.38,0-0.75,0v-1.51l0,0C210.08,95.16,210.27,95.16,210.46,95.16z M209.7,98.17h0.38l2.26,3.02h1.7c0,0,0.19,0,0-0.19
					c-0.38-0.38-0.75-0.94-1.32-1.7c-0.75-0.94-1.13-1.51-1.32-1.7c0.57-0.19,0.94-0.75,1.13-1.51c0-0.57,0-1.13-0.38-1.51
					c-0.19-0.38-0.57-0.57-0.94-0.75c-0.38-0.19-0.75-0.19-1.32-0.19h-1.88l0,0v7.54l0,0h1.32l0,0L209.7,98.17
					C209.52,98.17,209.52,98.17,209.7,98.17z"/>
			</g>
			<g>
				<path class="st1" d="M232.88,95.72l0.94,2.45h-1.88L232.88,95.72z M233.64,93.65h-1.51l0,0l-2.83,7.54l0,0h1.7l0.57-1.51h2.83
					l0.57,1.51h1.51c0,0,0.19,0,0,0L233.64,93.65L233.64,93.65z"/>
			</g>
			<g>
				<path class="st1" d="M258.7,101.19h-1.51l-3.77-5.28V101l0,0l0,0h-1.32l0,0v-7.54l0,0h1.51l3.77,5.09v-5.09l0,0h1.32h0.19
					L258.7,101.19C258.7,101.19,258.7,101.38,258.7,101.19z"/>
			</g>
			<g>
				<path class="st1" d="M279.81,99.11c-0.38,0.38-0.94,0.75-1.7,0.75c-0.75,0-1.32-0.19-1.7-0.75c-0.38-0.38-0.75-1.13-0.75-1.7
					c0-0.75,0.19-1.32,0.75-1.7c0.38-0.38,0.94-0.75,1.7-0.75c0.75,0,1.32,0.19,1.7,0.75c0.38,0.38,0.75,0.94,0.75,1.7
					S280.37,98.74,279.81,99.11z M280.94,94.59c-0.75-0.75-1.7-1.13-2.83-1.13c-1.13,0-2.07,0.38-2.83,1.13s-1.13,1.7-1.13,2.83
					c0,1.13,0.38,2.07,1.13,2.83c0.75,0.75,1.7,1.13,2.83,1.13c1.13,0,2.07-0.38,2.83-1.13c0.75-0.75,1.13-1.7,1.13-2.83
					C282.07,96.48,281.69,95.53,280.94,94.59z"/>
			</g>
			<g>
				<path class="st1" d="M300.91,95.72l0.94,2.45h-1.88L300.91,95.72z M301.67,93.65h-1.51l0,0l-2.83,7.54l0,0h1.7l0.57-1.51h2.83
					l0.57,1.51h1.51c0,0,0.19,0,0,0L301.67,93.65L301.67,93.65z"/>
			</g>
			<g>
				<path class="st1" d="M326.73,101.19h-1.51l-3.77-5.28V101l0,0l0,0h-1.32l0,0v-7.54l0,0h1.51l3.77,5.09v-5.09l0,0h1.32h0.19
					L326.73,101.19C326.73,101.19,326.73,101.38,326.73,101.19z"/>
			</g>
			<g>
				<path class="st1" d="M345.76,95.72l0.94,2.45h-1.88L345.76,95.72z M346.51,93.65H345l0,0l-2.83,7.54l0,0h1.7l0.57-1.51h2.83
					l0.57,1.51h1.51c0,0,0.19,0,0,0L346.51,93.65L346.51,93.65z"/>
			</g>
		</g>
		<g>
			<g>
				<g>
					<path class="st1" d="M247.39,44.47h29.4c0.94,0,1.7,0.75,1.7,1.7s-0.75,1.88-1.7,1.88h-29.4c-0.94,0-1.7-0.75-1.7-1.7
						C245.7,45.22,246.45,44.47,247.39,44.47z"/>
					<path class="st1" d="M276.98,49.18h-29.4c-1.7,0-3.02-1.32-3.02-3.02s1.32-3.02,3.02-3.02h29.4c1.7,0,3.02,1.32,3.02,3.02
						C279.81,47.86,278.49,49.18,276.98,49.18z M247.39,45.6c-0.38,0-0.57,0.19-0.57,0.57s0.19,0.57,0.57,0.57h29.4
						c0.38,0,0.57-0.38,0.57-0.57c0-0.38-0.19-0.57-0.57-0.57H247.39L247.39,45.6z"/>
				</g>
				<g>
					<path class="st1" d="M257.76,41.26c-0.94,0-2.07,0.75-2.64,1.7l-20.73,42.78c-0.57,0.94,0,1.7,0.94,1.7h6.97
						c0.94,0,2.07-0.75,2.64-1.7l20.73-42.78c0.57-0.94,0-1.7-0.94-1.7H257.76z"/>
					<path class="st1" d="M235.14,88.75c-0.75,0-1.51-0.38-1.88-0.94c-0.38-0.75-0.38-1.51,0-2.45l20.73-42.78
						c0.75-1.32,2.26-2.45,3.58-2.45h6.97c0.75,0,1.51,0.38,1.88,0.94c0.38,0.75,0.38,1.51,0,2.45L245.7,86.3
						c-0.75,1.32-2.26,2.45-3.58,2.45H235.14L235.14,88.75z M257.76,42.39c-0.38,0-1.32,0.57-1.51,1.13L235.52,86.3c0,0,0,0,0,0.19
						h6.97c0.38,0,1.32-0.57,1.51-1.13l20.73-42.78c0,0,0,0,0-0.19L257.76,42.39L257.76,42.39z"/>
				</g>
				<g>
					<path class="st1" d="M264.17,55.58L264.17,55.58l0.94-1.88c0.57-0.94,1.7-1.7,2.64-1.7h6.97c0.94,0,1.32,0.75,0.94,1.7
						l-0.94,1.88l0,0"/>
					<path class="st1" d="M265.11,55.96l-2.07-0.94l0.94-1.88c0.75-1.32,2.26-2.45,3.58-2.45h6.97c0.75,0,1.51,0.38,1.88,0.94
						c0.38,0.75,0.38,1.51,0,2.45l-0.94,1.88l-2.07-0.94l0.94-1.88c0,0,0,0,0-0.19h-6.97c-0.38,0-1.32,0.57-1.51,1.13L265.11,55.96z
						"/>
				</g>
				<g>
					<path class="st1" d="M272.83,59.16l-7.73,15.83c-0.57,0.94-1.7,2.26-2.64,3.02l-6.78,4.52c-0.94,0.75-2.64,1.32-3.58,1.32
						h-23.18c-0.94,0-2.07-0.57-2.45-1.32l-2.26-4.52c-0.38-0.75-0.19-2.07,0.19-3.02l5.28-10.74c0.57-0.94,1.7-2.26,2.64-3.02
						l6.78-4.52c0.94-0.75,2.64-1.32,3.58-1.32h38.07c0.94,0,2.07,0.57,2.45,1.32l2.45,4.71c0.38,0.75,0.19,2.07-0.19,3.02
						L275.1,85.92c-0.57,0.94-1.7,1.7-2.64,1.7h-6.97c-0.94,0-1.32-0.75-0.94-1.7l12.06-25.06c0.57-0.94,0-1.7-0.94-1.7l0,0
						c0.94,0-2.64,0-5.46,0h-25.63c-0.94,0-2.07,0.75-2.64,1.7l-8.67,17.9c-0.57,0.94,0,1.7,0.94,1.7h16.21
						c0.94,0,2.07-0.75,2.64-1.7l9.42-19.41"/>
					<path class="st1" d="M265.48,88.75c-0.75,0-1.51-0.38-1.88-0.94c-0.38-0.75-0.38-1.51,0-2.45l12.06-25.06c0,0,0,0,0-0.19h-1.88
						l-7.54,15.45c-0.57,1.13-1.88,2.64-3.02,3.58l-6.78,4.52c-1.13,0.75-3.02,1.51-4.33,1.51h-23.18c-1.51,0-2.83-0.75-3.39-1.88
						l-2.26-4.52c-0.57-1.13-0.38-3.02,0.19-4.15l5.28-10.74c0.57-1.13,1.88-2.64,3.02-3.58l6.78-4.52
						c1.32-0.75,3.02-1.51,4.33-1.51h38.07c1.32,0,2.83,0.75,3.39,1.88l2.45,4.71c0.57,1.13,0.38,3.02-0.19,4.15l-10.36,21.48
						c-0.75,1.32-2.26,2.45-3.58,2.45L265.48,88.75L265.48,88.75z M275.85,57.85c0.75,0,1.32,0.38,1.7,0.94
						c0.38,0.75,0.38,1.51,0,2.45L265.48,86.3c0,0,0,0,0,0.19h6.78c0.38,0,1.32-0.57,1.51-1.13l10.36-21.48
						c0.38-0.75,0.38-1.7,0.19-2.07l-2.45-4.52c-0.19-0.19-0.75-0.57-1.32-0.57h-38.07c-0.75,0-2.07,0.38-3.02,1.13l-6.78,4.52
						c-0.94,0.57-1.88,1.7-2.26,2.64l-5.28,10.74c-0.38,0.75-0.38,1.7-0.19,2.07l2.26,4.52c0.19,0.19,0.75,0.57,1.32,0.57h23.18
						c0.75,0,2.07-0.38,3.02-1.13l6.78-4.52c0.94-0.57,1.88-1.7,2.26-2.64l6.97-14.32h-7.91l-9.23,19.03
						c-0.75,1.32-2.26,2.45-3.58,2.45h-16.21c-0.75,0-1.51-0.38-1.88-0.94c-0.38-0.75-0.38-1.51,0-2.45l8.67-17.9
						c0.75-1.32,2.26-2.45,3.58-2.45L275.85,57.85L275.85,57.85z M234.2,79.33h16.02c0.38,0,1.32-0.57,1.51-1.13l8.67-17.9h-16.02
						c-0.38,0-1.32,0.57-1.51,1.13L234.2,79.33C234.2,79.14,234.2,79.33,234.2,79.33z"/>
				</g>
			</g>
			<g>
				<g>
					<path class="st1" d="M105.87,62.56c-0.94,0-1.32-0.75-0.94-1.7l5.09-10.74c0.57-0.94,1.7-1.7,2.64-1.7h6.97
						c0.94,0,1.32,0.75,0.94,1.7l-3.39,7.16c-0.57,0.94,0,1.7,0.94,1.7h33.35c0.94,0,2.07,0.57,2.45,1.32l2.45,4.71
						c0.38,0.75,0.19,2.07-0.19,3.02l-5.09,10.74c-0.57,0.94-1.7,2.26-2.64,3.02l-6.78,4.71c-0.94,0.75-2.64,1.32-3.58,1.32h-28.45
						c-0.94,0-1.7-0.75-1.7-1.7c0-0.94,0.75-1.88,1.7-1.88h26.19c0.94,0,2.07-0.75,2.64-1.7l8.67-17.9c0.57-0.94,0-1.7-0.94-1.7
						h-40.33C105.87,62.94,105.87,62.56,105.87,62.56z"/>
					<path class="st1" d="M137.53,88.56h-27.89c-1.7,0-3.02-1.32-3.02-3.02s1.32-3.02,3.02-3.02h26.19c0.38,0,1.32-0.57,1.51-1.13
						l8.67-17.9c0,0,0,0,0-0.19h-40.33c-0.75,0-1.51-0.38-1.88-0.94c-0.38-0.75-0.38-1.51,0-2.45l5.09-10.74
						c0.75-1.32,2.26-2.45,3.58-2.45h6.97c0.75,0,1.51,0.38,1.88,0.94c0.38,0.75,0.38,1.51,0,2.45l-3.39,7.16c0,0,0,0,0,0.19h33.17
						c1.32,0,2.83,0.75,3.39,1.88l2.45,4.52c0.57,1.13,0.38,3.02-0.19,4.15l-5.09,10.74c-0.57,1.13-1.88,2.64-3.2,3.58l-6.78,4.71
						C140.73,88,138.85,88.56,137.53,88.56z M109.64,85.17c-0.38,0-0.57,0.19-0.57,0.57s0.19,0.57,0.57,0.57h27.89
						c0.75,0,2.07-0.38,3.02-1.13l6.78-4.71c0.94-0.57,1.88-1.7,2.26-2.64l5.09-10.74c0.38-0.75,0.38-1.7,0.19-2.07l-2.07-4.33
						c-0.19-0.19-0.75-0.57-1.32-0.57h-33.35c-0.75,0-1.51-0.38-1.88-0.94c-0.38-0.75-0.38-1.51,0-2.45l3.39-7.16c0,0,0,0,0-0.19
						h-6.78c-0.38,0-1.32,0.57-1.51,1.13l-5.09,10.74c0,0,0,0,0,0.19h40.33c0.75,0,1.51,0.38,1.88,0.94c0.38,0.75,0.38,1.51,0,2.45
						l-8.86,17.9c-0.75,1.32-2.26,2.45-3.58,2.45h-26.39V85.17z"/>
				</g>
				<g>
					<path class="st1" d="M133.01,41.07c-0.94,0-2.07,0.75-2.64,1.7l-3.39,7.16c-0.57,0.94,0,1.7,0.94,1.7h6.97
						c0.94,0,2.07-0.75,2.64-1.7l3.39-7.16c0.57-0.94,0-1.7-0.94-1.7H133.01z"/>
					<path class="st1" d="M134.89,52.95h-6.97c-0.75,0-1.51-0.38-1.88-0.94c-0.38-0.75-0.38-1.51,0-2.45l3.39-7.16
						c0.75-1.32,2.26-2.45,3.58-2.45h6.97c0.75,0,1.51,0.38,1.88,0.94c0.38,0.75,0.38,1.51,0,2.45l-3.39,7.16
						C137.91,52,136.4,52.95,134.89,52.95z M127.92,50.68h6.97c0.38,0,1.32-0.57,1.51-1.13l3.39-7.16c0,0,0,0,0-0.19h-6.97
						c-0.38,0-1.32,0.57-1.51,1.13L127.92,50.68L127.92,50.68z"/>
				</g>
			</g>
			<g>
				<g>
					<path class="st1" d="M64.04,55.77l6.22-12.81c0.57-0.94,1.7-1.7,2.64-1.7h6.97c0.94,0,1.32,0.75,0.94,1.7l-6.22,12.63"/>
					<path class="st1" d="M65.17,56.34L63.1,55.4l6.22-12.81c0.75-1.32,2.26-2.45,3.58-2.45h6.97c0.75,0,1.51,0.38,1.88,0.94
						c0.38,0.75,0.38,1.51,0,2.45l-6.22,12.63l-1.88-1.13l6.22-12.63c0,0,0,0,0-0.19H72.9c-0.38,0-1.32,0.57-1.51,1.13L65.17,56.34z
						"/>
				</g>
				<g>
					<path class="st1" d="M50.47,87.43c-0.94,0-2.07-0.57-2.45-1.32l-2.26-4.52c-0.38-0.75-0.19-2.07,0.19-3.02l6.78-14.13
						c0.57-0.94,1.7-2.26,2.64-3.02l6.78-4.52c0.94-0.75,2.64-1.32,3.58-1.32h29.59c0.94,0,1.7,0.75,1.7,1.88
						c0,0.94-0.75,1.7-1.7,1.7H67.81c-0.94,0-2.07,0.75-2.64,1.7L54.8,82.15c-0.57,0.94,0,1.7,0.94,1.7h42.78
						c0.94,0,1.7,0.75,1.7,1.88c0,0.94-0.75,1.7-1.7,1.7C98.52,87.43,50.47,87.43,50.47,87.43z"/>
					<path class="st1" d="M98.52,88.56H50.47c-1.51,0-2.83-0.75-3.39-1.88l-2.26-4.52c-0.57-1.13-0.38-3.02,0.19-4.15l6.78-14.13
						c0.57-1.13,1.88-2.64,3.02-3.58l6.78-4.52c1.13-0.75,3.02-1.51,4.33-1.51h29.59c1.7,0,3.02,1.32,3.02,3.02
						c0,1.51-1.32,3.02-3.02,3.02h-27.7c-0.38,0-1.32,0.57-1.51,1.13L55.93,82.72c0,0,0,0,0,0.19h42.59c1.7,0,3.02,1.32,3.02,3.02
						C101.35,87.24,100.03,88.56,98.52,88.56z M65.92,56.71c-0.75,0-2.07,0.38-3.02,1.13l-6.78,4.52c-0.94,0.57-1.88,1.7-2.26,2.64
						l-6.78,14.13c-0.38,0.75-0.38,1.7-0.19,2.07l2.26,4.52c0.19,0.19,0.75,0.57,1.32,0.57h47.86c0.38,0,0.57-0.19,0.57-0.57
						s-0.38-0.57-0.57-0.57H55.75c-0.75,0-1.51-0.38-1.88-0.94c-0.38-0.75-0.38-1.51,0-2.45l10.36-21.29
						c0.75-1.32,2.26-2.45,3.58-2.45H95.7c0.38,0,0.57-0.38,0.57-0.57c0-0.38-0.38-0.57-0.57-0.57H65.92V56.71z"/>
				</g>
			</g>
			<g>
				<path class="st1" d="M192.18,78.39c-0.57,0.94-1.7,2.45-2.83,3.02l-6.97,4.71c-1.13,0.75-2.64,1.32-3.77,1.32h-14.32
					c-0.94,0-2.07-0.57-2.45-1.32l-2.26-4.71c-0.38-0.75-0.19-2.07,0.19-3.02L169,59.35c0.57-0.94,1.7-2.45,2.83-3.02l6.97-4.71
					c1.13-0.75,2.64-1.32,3.77-1.32h35.8c0.94,0,2.07,0.57,2.45,1.32l2.45,4.71c0.38,0.75,0.19,2.07-0.19,3.02l-12.81,26.38
					c-0.57,0.94-1.7,1.88-2.64,1.88h-7.16c-0.94,0-1.32-0.75-0.94-1.88l14.51-29.96c0.57-0.94,0-1.88-0.94-1.88h-28.83
					c-0.94,0-2.26,0.75-2.64,1.88l-12.81,26.38c-0.57,0.94,0,1.88,0.94,1.88h7.16c0.94,0,2.26-0.75,2.64-1.88L190.3,60.1
					c0.57-0.94,1.7-1.88,2.64-1.88h7.16c0.94,0,1.32,0.75,0.94,1.88L192.18,78.39z"/>
				<path class="st1" d="M207.44,88.75h-7.16c-0.75,0-1.51-0.38-1.88-0.94c-0.38-0.75-0.38-1.51,0-2.45l14.51-29.96v-0.19h-28.64
					c-0.57,0-1.32,0.57-1.7,1.13l-12.81,26.38v0.19h7.16c0.57,0,1.32-0.57,1.7-1.13l10.74-22.05c0.75-1.32,2.26-2.45,3.77-2.45h7.16
					c0.75,0,1.51,0.38,1.88,0.94c0.38,0.75,0.38,1.51,0,2.45l-9.05,18.28c-0.57,1.13-1.88,2.83-3.2,3.58l-6.97,4.71
					c-1.32,0.75-3.2,1.51-4.33,1.51H164.3c-1.51,0-3.02-0.75-3.39-1.88l-2.26-4.71c-0.57-1.13-0.38-3.02,0.19-4.15l9.23-19.03
					c0.57-1.13,1.88-2.83,3.2-3.58l6.97-4.71c1.32-0.94,3.2-1.51,4.33-1.51h35.8c1.51,0,3.02,0.75,3.39,1.88l2.45,4.71
					c0.57,1.13,0.38,3.02-0.19,4.15L211.21,86.3C210.46,87.62,208.76,88.75,207.44,88.75z M200.28,86.49h6.97
					c0.57,0,1.32-0.57,1.7-1.13l12.81-26.38c0.38-0.75,0.38-1.88,0.19-2.07l-2.45-4.71c-0.19-0.19-0.75-0.57-1.32-0.57h-35.8
					c-0.75,0-2.07,0.38-3.02,1.13l-6.97,4.71c-0.94,0.57-2.07,1.88-2.45,2.64l-9.05,18.84c-0.38,0.75-0.38,1.88-0.19,2.07l2.26,4.71
					c0.19,0.19,0.75,0.57,1.32,0.57h14.32c0.75,0,2.07-0.38,3.02-1.13l6.97-4.71c0.94-0.57,2.07-1.88,2.45-2.64l9.05-18.47v-0.19
					h-7.16c-0.57,0-1.32,0.57-1.7,1.13L180.5,82.34c-0.75,1.32-2.26,2.45-3.77,2.45h-6.97c-0.75,0-1.51-0.38-1.88-0.94
					c-0.38-0.75-0.38-1.51,0-2.45l12.81-26.38c0.75-1.32,2.26-2.45,3.77-2.45h28.64c0.75,0,1.51,0.38,1.88,0.94
					c0.38,0.75,0.38,1.51,0,2.45L200.28,86.49C200.47,86.3,200.47,86.3,200.28,86.49z M200.28,59.35L200.28,59.35L200.28,59.35z"/>
			</g>
			<g>
				<g>
					<path class="st1" d="M319.57,50.5c0.94,0,1.7-0.75,1.7-1.88c0-0.94-0.75-1.7-1.7-1.7h-22.99c-0.94,0-1.7,0.75-1.7,1.7
						c0,0.94,0.75,1.88,1.7,1.88H319.57z"/>
					<path class="st1" d="M319.57,51.63h-22.99c-1.7,0-3.02-1.32-3.02-3.02s1.32-3.02,3.02-3.02h22.99c1.7,0,3.02,1.32,3.02,3.02
						C322.58,50.31,321.26,51.63,319.57,51.63z M296.58,48.05c-0.38,0-0.57,0.19-0.57,0.57s0.19,0.57,0.57,0.57h22.99
						c0.38,0,0.57-0.19,0.57-0.57s-0.19-0.57-0.57-0.57H296.58z"/>
				</g>
				<g>
					<path class="st1" d="M346.7,51.06c0.94,0,2.07-0.75,2.64-1.7l2.83-5.84c0.57-0.94,0-1.7-0.94-1.7h-6.97
						c-0.94,0-2.07,0.75-2.64,1.7l-2.83,5.84c-0.57,0.94,0,1.7,0.94,1.7H346.7z"/>
					<path class="st1" d="M346.7,52.19h-6.97c-0.75,0-1.51-0.38-1.88-0.94c-0.38-0.75-0.38-1.51,0-2.45l2.83-5.84
						c0.75-1.32,2.26-2.45,3.58-2.45h6.97c0.75,0,1.51,0.38,1.88,0.94c0.38,0.75,0.38,1.51,0,2.45l-2.83,5.84
						C349.72,51.25,348.21,52.19,346.7,52.19z M339.92,49.93h6.97c0.38,0,1.32-0.57,1.51-1.13l2.83-5.84c0,0,0,0,0-0.19h-6.97
						c-0.38,0-1.32,0.57-1.51,1.13L339.92,49.93L339.92,49.93z"/>
				</g>
				<g>
					<path class="st1" d="M330.69,66.33l1.7-3.77l0,0l2.64-5.46c0.57-0.94,1.7-1.7,2.64-1.7h6.97c0.94,0,1.32,0.75,0.94,1.7
						l-2.64,5.46l0,0l-1.7,3.58"/>
					<path class="st1" d="M331.82,66.7l-2.07-0.94l4.33-9.05c0.75-1.32,2.26-2.45,3.58-2.45h6.97c0.75,0,1.51,0.38,1.88,0.94
						c0.38,0.75,0.38,1.51,0,2.45l-2.64,5.46l-1.7,3.58l-2.07-0.94l1.7-3.58l2.64-5.46l0,0h-6.97c-0.38,0-1.32,0.57-1.51,1.13
						L331.82,66.7z"/>
				</g>
				<g>
					<path class="st1" d="M341.24,66.14l-6.03,12.44c-0.57,0.94-1.7,2.26-2.64,3.02l-6.78,4.52c-0.94,0.75-2.64,1.32-3.58,1.32
						h-10.55c-0.94,0-2.07-0.57-2.45-1.32l-2.26-4.71c-0.38-0.75-0.19-2.07,0.19-3.02l3.39-7.16c0.57-0.94,1.7-2.26,2.64-3.02
						l6.78-4.52c0.94-0.75,2.64-1.32,3.58-1.32h22.8c0.94,0,1.88,0.75,1.7,1.7c0,0.94-0.75,1.7-1.7,1.7h-20.54
						c-1.32,0-2.64,0.75-3.02,1.7l-6.78,14.32c-0.57,0.94,0,1.7,0.94,1.7h3.58c0.94,0,2.07-0.75,2.64-1.7l7.73-15.83"/>
					<path class="st1" d="M322.21,88.75h-10.55c-1.32,0-2.83-0.75-3.39-1.88L306,82.15c-0.57-1.13-0.38-3.02,0.19-4.15l3.39-7.16
						c0.57-1.13,1.88-2.64,3.2-3.58l6.78-4.52c1.32-0.75,3.02-1.51,4.33-1.51h22.8c0.75,0,1.51,0.38,2.07,0.94s0.94,1.32,0.94,2.07
						c0,1.7-1.32,3.02-3.02,3.02h-4.33l-5.65,11.87c-0.57,1.13-1.88,2.64-3.02,3.58l-6.78,4.52C325.22,88,323.34,88.75,322.21,88.75
						z M323.71,63.69c-0.75,0-2.07,0.38-3.02,1.13l-6.78,4.52c-0.94,0.57-1.88,1.7-2.26,2.64l-3.39,7.16
						c-0.38,0.75-0.38,1.7-0.19,2.07l2.26,4.71c0.19,0.19,0.75,0.57,1.32,0.57h10.55c0.75,0,2.07-0.38,3.02-1.13l6.78-4.52
						c0.94-0.57,1.88-1.88,2.26-2.64l5.28-10.74h-7.91l-7.54,15.45c-0.75,1.32-2.26,2.45-3.58,2.45h-3.58
						c-0.75,0-1.51-0.38-1.88-0.94c-0.38-0.75-0.38-1.51,0-2.45l6.78-14.32c0.75-1.51,2.26-2.45,4.15-2.45h20.54
						c0.38,0,0.57-0.19,0.57-0.57c0-0.19-0.19-0.38-0.19-0.38c-0.19-0.19-0.19-0.19-0.38-0.19h-22.8v-0.37H323.71z M316.93,82.72
						h3.39c0.38,0,1.32-0.57,1.51-1.13l6.97-14.32h-3.02c-0.94,0-1.7,0.57-2.07,1.13L316.93,82.72L316.93,82.72z"/>
				</g>
				<g>
					<path class="st1" d="M302.04,62.56c0.94,0,2.07-0.75,2.64-1.7l8.67-17.9c0.57-0.94,0-1.7-0.94-1.7h-6.97
						c-0.94,0-2.07,0.75-2.64,1.7l-8.67,17.9c-0.57,0.94,0,1.7,0.94,1.7H302.04z"/>
					<path class="st1" d="M302.04,63.69h-6.97c-0.75,0-1.51-0.38-1.88-0.94c-0.38-0.75-0.38-1.51,0-2.45l8.67-17.9
						c0.75-1.32,2.26-2.45,3.58-2.45h6.97c0.75,0,1.51,0.38,1.88,0.94c0.38,0.75,0.38,1.51,0,2.45l-8.67,17.9
						C305.06,62.56,303.55,63.69,302.04,63.69z M295.07,61.43h6.97c0.38,0,1.32-0.57,1.51-1.13l8.67-17.9c0,0,0,0,0-0.19h-6.97
						c-0.38,0-1.32,0.57-1.51,1.13L295.07,61.43C295.07,61.24,295.07,61.24,295.07,61.43z"/>
				</g>
			</g>
		</g>
	</g>
</g>
</svg>
